<svg id="レイヤー_1" data-name="レイヤー 1" xmlns="http://www.w3.org/2000/svg" viewBox="0 0 161 161"><defs><style>.cls-1{fill:#fff;}</style></defs><title>ad</title><path class="cls-1" d="M130.41,54.81v-.15a21.93,21.93,0,0,0-21.94-21.94,23.68,23.68,0,0,0-4,.38,23.94,23.94,0,0,0-45.89,9.58,24.72,24.72,0,0,0,.38,4.1A17.95,17.95,0,0,0,46,75.05l-.15.78a32.92,32.92,0,0,0-6.64,2.78l-4.56-2.86L24,86.41,26.8,91A34.11,34.11,0,0,0,24,97.61l-5.25,1.24V114L24,115.23a34.37,34.37,0,0,0,2.78,6.64L24,126.43l10.66,10.66,4.56-2.86A32.92,32.92,0,0,0,45.81,137l1.24,5.26H62.19L63.42,137a33.25,33.25,0,0,0,6.65-2.78l4.56,2.86,10.66-10.66-2.86-4.56a33.88,33.88,0,0,0,1.62-3.48h38.24v-2a10,10,0,0,0-10-10h-2v-8h21.94a10,10,0,0,0,10-10V68.56a13.71,13.71,0,0,0-11.82-13.75ZM60.64,50.64a13.92,13.92,0,0,1,5.26,1l1.46-3.7a16.65,16.65,0,0,0-4.24-1.09,19.11,19.11,0,0,1-.47-4.17,19.94,19.94,0,0,1,39.87,0h4a28,28,0,0,0-.69-5.79,15.46,15.46,0,0,1,2.7-.23,17.94,17.94,0,0,1,17.93,17.92,12.67,12.67,0,0,1-.08,1.78l-.16,2.16h2.25a10,10,0,0,1,0,19.93H77.56l-2.78-2.78-4.56,2.86a32.92,32.92,0,0,0-6.64-2.78L62.34,70.5H48.2a14.5,14.5,0,0,1-1.39-6A13.74,13.74,0,0,1,60.64,50.64ZM82,112l-.31,1.16a28.49,28.49,0,0,1-3.24,7.8L77.87,122,80.34,126l-6.25,6.25-3.94-2.47-1.09.62a27.5,27.5,0,0,1-7.8,3.24l-1.16.31L59,138.48H50.21l-1.08-4.56L48,133.61a28.49,28.49,0,0,1-7.8-3.24l-1.08-.62-3.94,2.47L28.89,126,31.36,122l-.62-1.09a28.09,28.09,0,0,1-3.24-7.8L27.19,112l-4.56-1.08v-8.81L27.19,101l.31-1.16a29.13,29.13,0,0,1,3.24-7.8L31.36,91,28.89,87l6.26-6.26,3.94,2.47,1.08-.62A27.91,27.91,0,0,1,48,79.38l1.16-.31,1.08-4.56H59l1.08,4.56,1.16.31a28.8,28.8,0,0,1,7.8,3.24l1.09.62,3.94-2.47L80.34,87,77.87,91l.62,1.08a27.5,27.5,0,0,1,3.24,7.8L82,101l4.56,1.08v8.81Zm36.08,2.47H88.76l1.78-.38v-3.56h21.94a5.87,5.87,0,0,1,5.64,3.94Zm-11.59-8H90.62V98.93l-1.78-.39h17.69Zm31.83-18a5.94,5.94,0,0,1-5.94,5.94H84.21A37.27,37.27,0,0,0,82.58,91l2.86-4.56-3.86-3.86h47a14.05,14.05,0,0,0,10-4.17V88.5Z"/><path class="cls-1" d="M130.41,86.56h4v4h-4Z"/><path class="cls-1" d="M122.45,86.56h4v4h-4Z"/><path class="cls-1" d="M114.49,86.56h4v4h-4Z"/><path class="cls-1" d="M54.69,82.55a24,24,0,1,0,24,24A24,24,0,0,0,54.69,82.55Zm0,43.88A19.94,19.94,0,1,1,74.63,106.5,20,20,0,0,1,54.69,126.43Z"/><path class="cls-1" d="M54.69,94.52a12,12,0,1,0,12,12A12,12,0,0,0,54.69,94.52Zm0,19.93a8,8,0,1,1,8-8A7.94,7.94,0,0,1,54.69,114.45Z"/><path class="cls-1" d="M74.09,34.18a12,12,0,0,1,16.84,0l2.78-2.78a16.06,16.06,0,0,0-22.56,0,11.53,11.53,0,0,0-1.78,2.17l3.25,2.31c.54-.61,1-1.15,1.47-1.7Z"/><path class="cls-1" d="M71.07,39.28l-3.78-1.16a15,15,0,0,0-.7,4.56h4A12.4,12.4,0,0,1,71.07,39.28Z"/></svg>