<svg id="レイヤー_1" data-name="レイヤー 1" xmlns="http://www.w3.org/2000/svg" viewBox="0 0 161 161"><defs><style>.cls-1{fill:#fff;}</style></defs><title>ad</title><path class="cls-1" d="M146.84,26a7.88,7.88,0,0,0-6-2.4,8.19,8.19,0,0,0-5.93,2.58l-7.81,8.15H20.26a8.53,8.53,0,0,0-8.51,8.51V128.9a8.53,8.53,0,0,0,8.51,8.5h111.9a8.52,8.52,0,0,0,8.5-8.5V43.7l6-5.75A8.21,8.21,0,0,0,149.25,32,8.74,8.74,0,0,0,146.84,26ZM20.34,38.38h103L110.77,51.61H15.88V42.85A4.43,4.43,0,0,1,20.34,38.38ZM136.62,51.61h-4.29l4.29-4.13ZM143.92,35,117.56,60.11A2,2,0,1,0,120.3,63l7.82-7.39h8.5V128.9a4.43,4.43,0,0,1-4.46,4.46H20.26a4.43,4.43,0,0,1-4.47-4.46V55.64h91.12L86.21,77.45H24.64a2,2,0,0,0-2,2V116a2,2,0,0,0,2,2h4.29a2,2,0,1,0,0-3.95H26.61V81.49H82.35L80.89,83a9,9,0,0,0-5.5,2.49c-1.55,1.55-3,4.64-4.64,9.53-1.11,3.44-1.89,6.53-2,6.62a2,2,0,0,0,.51,1.89,2.1,2.1,0,0,0,1.46.6,1.06,1.06,0,0,0,.52-.09c.08,0,3.18-.77,6.61-2,4.9-1.64,8-3.18,9.53-4.64a8.81,8.81,0,0,0,2.49-5.5l11-10.48h24.9V114H37.43a2,2,0,0,0,0,4h90.35a1.94,1.94,0,0,0,2-2V79.43a1.94,1.94,0,0,0-2-2H105.1l9-8.5A2,2,0,1,0,111.37,66l-2,1.81L105,63.46,137.74,29a4.08,4.08,0,0,1,3.09-1.29,4.4,4.4,0,0,1,4.38,4.38A4,4,0,0,1,143.92,35ZM93.85,82.61,90.25,79l12-12.71,4.21,4.21ZM80.46,87.07l5.41,5.41a4.18,4.18,0,0,1-1.2,2.06c-.86.86-4.56,2.75-10.91,4.64,1.89-6.35,3.78-10.05,4.64-10.9A3.78,3.78,0,0,1,80.46,87.07Zm7.12,1.46-3.34-3.35,3.17-3.35,3.44,3.44Z"/><path class="cls-1" d="M22.49,47a2,2,0,0,0,0-3.95h0a2,2,0,1,0,0,3.95Z"/><path class="cls-1" d="M35.37,47a2,2,0,1,0,0-3.95h0a2,2,0,0,0,0,3.95Z"/><path class="cls-1" d="M28.93,47a2,2,0,1,0,0-3.95h0a2,2,0,0,0,0,3.95Z"/><path class="cls-1" d="M44,47h64.58a2,2,0,0,0,0-3.95H44A2,2,0,1,0,44,47Z"/><path class="cls-1" d="M24.64,72.82h55.9a2,2,0,1,0,0-3.95H24.64a2,2,0,1,0,0,3.95Z"/><path class="cls-1" d="M24.64,64.23H89.22a2,2,0,0,0,0-4H24.64a2,2,0,1,0,0,4Z"/><path class="cls-1" d="M91.28,122.54H61.13a2,2,0,0,0,0,3.95H91.28a2,2,0,0,0,0-3.95Z"/><path class="cls-1" d="M52.55,122.54h-28a2,2,0,0,0,0,3.95h28a2,2,0,0,0,0-3.95Z"/><path class="cls-1" d="M127.86,122.54h-28a2,2,0,1,0,0,3.95h28a2,2,0,1,0,0-3.95Z"/></svg>