<svg id="レイヤー_1" data-name="レイヤー 1" xmlns="http://www.w3.org/2000/svg" viewBox="0 0 161 161"><defs><style>.cls-1{fill:#fff;}</style></defs><title>ad</title><path class="cls-1" d="M139.74,113.91h-.81v-71a8.42,8.42,0,0,0-8.38-8.38H30.45a8.42,8.42,0,0,0-8.38,8.38v71h-.81a3.27,3.27,0,0,0-3.34,3.34v5.86a3.27,3.27,0,0,0,3.34,3.33H139.74a3.27,3.27,0,0,0,3.34-3.33v-5.86A3.27,3.27,0,0,0,139.74,113.91Zm-113.43-71a4.2,4.2,0,0,1,4.14-4.15H130.64a4.2,4.2,0,0,1,4.14,4.15v71H91.41L91,115.35l-.09.09c-.27.18-.63.54-1,.54H73.2a1.74,1.74,0,0,1-.73-.18.9.9,0,0,1-.36-.45l-.45-1.44H26.22v-71ZM138.93,122.3H22.07v-4.15h47a5.48,5.48,0,0,0,4.15,2.07H89.88A5.23,5.23,0,0,0,94,118.15h44.9v4.15Z"/><path class="cls-1" d="M130.64,107.69V45a1.94,1.94,0,0,0-2.08-2.08h-96A2,2,0,0,0,30.45,45V107.6a1.94,1.94,0,0,0,2.08,2.07h95.94A2,2,0,0,0,130.64,107.69Zm-4.24-2.17H34.6V47.09h91.8v58.43Z"/><path class="cls-1" d="M74.28,86.77a1.94,1.94,0,0,0,2.07-2.08V78.47h8.39v6.22a2.08,2.08,0,1,0,4.15,0V68a2.08,2.08,0,0,0-4.15,0v6.22H76.35V68a2.08,2.08,0,0,0-4.15,0V84.69A2,2,0,0,0,74.28,86.77Z"/><path class="cls-1" d="M55.52,86.77a2,2,0,0,0,2.08-2.08V79.28h2.52a6.89,6.89,0,0,0,6.67-6.67,6.71,6.71,0,0,0-6.67-6.67h-4.6A1.94,1.94,0,0,0,53.45,68V84.69A1.9,1.9,0,0,0,55.52,86.77ZM57.6,70.08h2.52a2.75,2.75,0,0,1,2.53,2.71,2.59,2.59,0,0,1-2.53,2.53H57.6Z"/><path class="cls-1" d="M97.18,86.77a2,2,0,0,0,2.08-2.08V79.28h2.52a6.89,6.89,0,0,0,6.67-6.67,6.71,6.71,0,0,0-6.67-6.67h-4.6A1.94,1.94,0,0,0,95.11,68V84.69A1.94,1.94,0,0,0,97.18,86.77Zm2.17-16.69h2.52a2.75,2.75,0,0,1,2.53,2.71,2.59,2.59,0,0,1-2.53,2.53H99.35Z"/></svg>