<svg id="レイヤー_1" data-name="レイヤー 1" xmlns="http://www.w3.org/2000/svg" viewBox="0 0 161 161"><defs><style>.cls-1{fill:#fff;}</style></defs><title>ad</title><path class="cls-1" d="M47.94,125c-8.62-5.51-13-14.12-13-25.75a43.43,43.43,0,0,1,9.22-27h0a38.77,38.77,0,0,1,4-4.39c.61-.52,1.21-1.12,1.81-1.55h0A46.64,46.64,0,0,1,80.41,55.44a53.88,53.88,0,0,1,8.36.69.34.34,0,0,1,.26.08,19,19,0,0,1,2.07.43c.08,0,.17.09.25.09a45.64,45.64,0,0,1,16.8,7.58A2,2,0,1,0,110.57,61a51,51,0,0,0-15.34-7.5,3.47,3.47,0,0,1,2.93-.6,2,2,0,0,0,1.38-3.79c-2.76-.95-6,.17-8.1,2.41.52-2.5,2.33-4.22,5.08-5a2,2,0,1,0-1-4,10.49,10.49,0,0,0-8.18,9.31,58.58,58.58,0,0,0-6.81-.43A50.86,50.86,0,0,0,49.31,61.81c-3.1-5.77-2.92-10.25-2.15-13.09A15.6,15.6,0,0,1,60,37.52c5.6-.86,10.51,1.46,13.69,6.37a6.37,6.37,0,1,0,10.77-6.8A25.79,25.79,0,0,0,58,25,28.7,28.7,0,0,0,34.84,45.62c-1.55,5.86-1.72,15,5.26,25.67a11.59,11.59,0,0,1-.86,1.12,19.6,19.6,0,0,0-8.53-1.9c-10.6,0-19.13,8.19-19.13,18.35s8.62,18.35,19.13,18.35h.77A30.83,30.83,0,0,0,45.7,128.75a2.45,2.45,0,0,0,1.12.34,2.09,2.09,0,0,0,1.72-.94A2.35,2.35,0,0,0,47.94,125ZM38.72,46.39c2.32-9,10.34-16.11,19.9-17.66A21.91,21.91,0,0,1,81,39a2.31,2.31,0,0,1-3.88,2.5A17.17,17.17,0,0,0,59.39,33.3,19.9,19.9,0,0,0,43.28,47.51c-.94,3.71-1.2,9.56,2.93,16.8a5.61,5.61,0,0,0-.69.69c-.94.86-1.8,1.81-2.67,2.76C37.25,58.8,37.51,51.3,38.72,46.39ZM23.21,88a2.07,2.07,0,0,0,1.21.43A1.86,1.86,0,0,0,26,87.66a7.42,7.42,0,0,1,7-2.5,48.41,48.41,0,0,0-2.07,14.21c0,1.21.09,2.41.17,3.53h-.34c-8.36,0-15.08-6.37-15.08-14.3s6.81-14.3,15.08-14.3a14.58,14.58,0,0,1,6.37,1.38,48.34,48.34,0,0,0-2.75,5.6,11.6,11.6,0,0,0-11.55,3.88A2.15,2.15,0,0,0,23.21,88Z"/><path class="cls-1" d="M99.88,98.17a2,2,0,0,0,2-2V92.91a2,2,0,0,0-4,0v3.28A2,2,0,0,0,99.88,98.17Z"/><path class="cls-1" d="M61.12,90.84a2,2,0,0,0-2,2V96.1a2,2,0,0,0,4,0V92.83A2,2,0,0,0,61.12,90.84Z"/><path class="cls-1" d="M130.29,70.26a20.24,20.24,0,0,0-8.53,1.89,45.46,45.46,0,0,0-3.53-4.48,2,2,0,0,0-3,2.67,40.1,40.1,0,0,1,4.13,5.43.08.08,0,0,0,.09.08.18.18,0,0,0,.17.18,41,41,0,0,1,4,8.09c0,.09.09.18.09.26s.09.09.09.18a43.66,43.66,0,0,1,2.41,14.64c0,11.54-4.4,20.25-13,25.76-7.67,4.91-18.61,7.32-32.56,7.32-9.65,0-18-1.2-24.73-3.62a2,2,0,0,0-1.38,3.79c7.15,2.59,15.94,3.88,26.11,3.88,14.73,0,26.36-2.67,34.71-8a30.83,30.83,0,0,0,14.22-21.54h.77c10.6,0,19.13-8.18,19.13-18.35C149.42,78.53,140.8,70.26,130.29,70.26Zm0,32.64H130c.08-1.12.17-2.32.17-3.53a48.41,48.41,0,0,0-2.07-14.21,7.42,7.42,0,0,1,7,2.5,2.1,2.1,0,0,0,1.55.77,2.07,2.07,0,0,0,1.21-.43,2,2,0,0,0,.34-2.84,11.53,11.53,0,0,0-11.54-3.88,48.42,48.42,0,0,0-2.76-5.6,16,16,0,0,1,6.38-1.38c8.35,0,15.07,6.38,15.07,14.3S138.65,102.9,130.29,102.9Z"/><path class="cls-1" d="M88.08,98.6v-4A3.49,3.49,0,0,0,84.55,91h-8A3.49,3.49,0,0,0,73,94.55v4a7.54,7.54,0,0,0,15.07,0Zm-4,0a3.53,3.53,0,0,1-7.06,0V95.07h7V98.6Z"/><path class="cls-1" d="M108.15,118.07A25.43,25.43,0,0,0,119,96.62a27,27,0,0,0-38.51-24A28.16,28.16,0,0,0,69,70.08,26.75,26.75,0,0,0,42,96.62c0,9,3.71,16.36,10.86,21.45,6.72,4.82,16.28,7.32,27.65,7.32S101.52,122.89,108.15,118.07ZM46,96.62a22.94,22.94,0,0,1,33.51-20,2.19,2.19,0,0,0,1.81,0,22.94,22.94,0,0,1,33.51,20c0,15.5-12.92,24.72-34.46,24.72S46,112.12,46,96.62Z"/></svg>