<svg id="レイヤー_1" data-name="レイヤー 1" xmlns="http://www.w3.org/2000/svg" viewBox="0 0 161 161"><defs><style>.cls-1{fill:#fff;}</style></defs><title>ad</title><path class="cls-1" d="M108.62,24.78a2.89,2.89,0,0,0-3.07-.64,2.82,2.82,0,0,0-1.78,2.67V42c-15.37.65-23.14,7-24.27,8.09a43,43,0,0,0-15,25.16,43.44,43.44,0,0,0-.49,14.48h0v.16l.57,3.48a3,3,0,0,0,2.26,2.34,2.89,2.89,0,0,0,3-1.37l1.78-3c5.58-9.3,12.53-15.45,20.62-18.28a30.22,30.22,0,0,1,11.41-1.69V87.15a3,3,0,0,0,1.78,2.67,2.89,2.89,0,0,0,3.07-.65l30.09-30.25a2.84,2.84,0,0,0,0-4.05Zm.89,55.41V68.79A2.93,2.93,0,0,0,107.08,66a34.11,34.11,0,0,0-16.66,1.69c-8.17,2.92-15.29,8.5-21.11,16.83a39.72,39.72,0,0,1,.81-8.17,36.9,36.9,0,0,1,13.1-21.84l.16-.16c.17-.16,7.44-6.72,23.3-6.63h0a2.87,2.87,0,0,0,2.83-2.84V33.68l23.21,23.14Z"/><path class="cls-1" d="M129.43,107.94a2.74,2.74,0,0,0-2.57,2.83v12c0,4.69-3.45,8.57-7.77,8.57H34.43c-4.25,0-7.77-3.8-7.77-8.57V54.87c0-4.69,3.44-8.57,7.77-8.57h17.9a2.84,2.84,0,0,0,0-5.66H34.43c-7.11,0-12.91,6.39-12.91,14.23v67.95c0,7.84,5.8,14.23,12.91,14.23h84.66c7.11,0,12.91-6.39,12.91-14.23v-12A2.74,2.74,0,0,0,129.43,107.94Z"/></svg>