<svg id="レイヤー_1" data-name="レイヤー 1" xmlns="http://www.w3.org/2000/svg" viewBox="0 0 161 161"><defs><style>.cls-1{fill:#fff;}</style></defs><title>ad</title><path class="cls-1" d="M148.07,85.61A57.55,57.55,0,0,0,115.81,49a2.1,2.1,0,0,0-2.37.59,41.85,41.85,0,0,0-9.15,24.14c-3-.17-5.92-.34-8.72-.34L91.08,51.74a2,2,0,0,0-3.89.85l4.32,20.74c-3.31,0-6.44.09-9.32.26L77.7,55.47a2,2,0,0,0-3.89,1l4.32,17.45c-3.81.25-7.37.67-10.5,1.1L64.32,61.9a2,2,0,1,0-3.89,1l3.22,12.79c-3.39.59-6.27,1.27-8.81,1.86-.09,0-.17.08-.25.08L52,68.85A2,2,0,1,0,48.06,70l2.63,8.72A66.31,66.31,0,0,0,41,82.4a19.08,19.08,0,0,0-5.25-10.17,2,2,0,1,0-2.88,2.88,14.7,14.7,0,0,1,4.23,8.56H31.72A14.82,14.82,0,0,1,17,70.79h5.42a14.16,14.16,0,0,1,5.33,1A2,2,0,1,0,29.18,68a18.41,18.41,0,0,0-6.77-1.27H14.87a2.06,2.06,0,0,0-2,2A19,19,0,0,0,28.08,87.31a18.94,18.94,0,0,0-7.71,15.24v7.54a2.07,2.07,0,0,0,2,2A18.9,18.9,0,0,0,41.29,93.23V86.88A59.67,59.67,0,0,1,51.11,83l-.42,11.77a2.13,2.13,0,0,0,2,2.12h.08a2,2,0,0,0,2-1.95l.43-13c2.62-.68,5.5-1.36,8.8-2l-.42,16.51a2,2,0,0,0,2,2h.08a2,2,0,0,0,2-1.94l.5-17.28c3.14-.42,6.61-.84,10.42-1.1L77.11,98A2,2,0,0,0,79,100.09h.17a2.1,2.1,0,0,0,2-1.86L82.7,77.91c3-.17,6.1-.26,9.31-.26L90.58,98.48a2,2,0,0,0,1.86,2.12h.17a2.09,2.09,0,0,0,2-1.86l1.44-21c2.71.08,5.59.17,8.47.34a41.61,41.61,0,0,0,1.86,10.67,2,2,0,0,0,3.9-1.19,38.85,38.85,0,0,1-1.7-11.35A37.54,37.54,0,0,1,116,53.69a53.49,53.49,0,0,1,28.2,31.84,97.43,97.43,0,0,1-29.72,10.84c-.43-.68-.85-1.44-1.28-2.12a2,2,0,1,0-3.55,1.86,40.39,40.39,0,0,0,2.2,3.56,1.89,1.89,0,0,0,1.69.85h.34a99.08,99.08,0,0,0,33.79-12.45A3.46,3.46,0,0,0,148.07,85.61ZM37.14,93a14.83,14.83,0,0,1-12.87,14.74V102.3A14.83,14.83,0,0,1,37.14,87.56Z"/><path class="cls-1" d="M127.07,73.84l2-2a2,2,0,1,0-2.88-2.88l-2,2-2-2a2,2,0,0,0-2.88,2.88l2,2-2,2a2.1,2.1,0,0,0,0,2.88,2,2,0,0,0,2.88,0l2-2,2,2a2,2,0,0,0,1.44.6,2,2,0,0,0,1.44-.6,2.1,2.1,0,0,0,0-2.88Z"/></svg>