<svg id="レイヤー_1" data-name="レイヤー 1" xmlns="http://www.w3.org/2000/svg" viewBox="0 0 161 161"><defs><style>.cls-1{fill:#fff;}</style></defs><title>ad</title><path class="cls-1" d="M125.56,119.63c-.17,0-.17-.17-.25-.17-5.87-3.1-15.43-8.64-16.86-11.57-1.76-3.53-1.76-13.09,0-16.61,2-3.94,14.34-11.33,21.73-14.93.16,0,.16-.17.25-.17a15.32,15.32,0,0,0-8.81-27.85,15.89,15.89,0,0,0-8.81,2.77l-4.69,3.19a29.79,29.79,0,1,0-55.19,0l-4.7-3.19a15.45,15.45,0,0,0-21.39,3.69,15.8,15.8,0,0,0-2.6,11.41,15.37,15.37,0,0,0,6.29,10c.17,0,.17.17.25.17,7.3,3.69,19.63,11,21.73,14.93,1.76,3.35,1.76,11.91.16,14.51-2.18,3.52-13.33,10.15-19.79,13.5-.17,0-.17.17-.25.17a15.28,15.28,0,0,0-3.94,21.39,15.58,15.58,0,0,0,12.58,6.63,15,15,0,0,0,8.64-2.6l13.92-9.57c.17-.16.25-.16.25-.25,1.18-1.17,5.29-2.6,12.92-2.6,8.81,0,16.69,1.93,18.45,3.69l.25.25L108.2,145a15.39,15.39,0,0,0,17.36-25.41Zm-7.8-65.84a11.63,11.63,0,0,1,3.69-.76,11.08,11.08,0,0,1,8.81,4.53,10.66,10.66,0,0,1-1,13.67c-3.94-.84-7-2.6-9-5.45C117.17,61.33,117.68,55.63,117.76,53.79ZM29,65.44a10.22,10.22,0,0,1,1.76-7.88A11,11,0,0,1,39.59,53a12.88,12.88,0,0,1,3.19.42c.25,2.35.75,7.88-2.18,12.33-1.77,2.77-4.87,4.53-8.64,5.28A12.42,12.42,0,0,1,29,65.44Zm20,74.4-1.59,1a9.18,9.18,0,0,1-6,2,10.59,10.59,0,0,1-8.81-4.69,10.88,10.88,0,0,1,2.6-14.85h.17c1.76.25,7.89,1.76,11.41,6.46A13.19,13.19,0,0,1,49,139.84Zm56-3.1-6.12-4.28c-3.52-3.35-13.67-4.86-21.56-4.86-5.45,0-12.58.75-16,3.77l-7.46,5.12a19.05,19.05,0,0,0-3.19-9.56,20.87,20.87,0,0,0-9.39-6.88c5.53-3.19,13.33-8,15.68-11.91,2.77-4.36,2.35-14.85.17-19.21-2.6-5-13.51-11.41-19.63-14.85a16.1,16.1,0,0,0,7.3-6,22,22,0,0,0,3.19-12l10,6.88a4.49,4.49,0,0,0,1.76.42,2,2,0,0,0,1.43-1c0-.17.16-.17.16-.25l.25-.42a2.16,2.16,0,0,0-.16-2.77,25.08,25.08,0,1,1,38.75,0,2.16,2.16,0,0,0-.17,2.77l.25.42c0,.17.17.17.17.25a2,2,0,0,0,1.43,1,1.93,1.93,0,0,0,1.76-.42l9.56-6.71A21.92,21.92,0,0,0,116.5,68,18.25,18.25,0,0,0,124,74c-6.29,3.69-17.28,10.15-19.8,15.1s-2.51,16.1,0,20.8c1.77,3.35,8.22,7.46,13.17,10.23a21.47,21.47,0,0,0-9.22,6.71A19.69,19.69,0,0,0,105,136.74Zm21,1.68a10.68,10.68,0,0,1-8.81,4.69,9.72,9.72,0,0,1-6-1.93l-1.35-.83c-.42-3.95.26-7.47,2.18-10.15,3.36-4.53,9.4-6.13,11.33-6.46h.17A10.69,10.69,0,0,1,126,138.42Z"/><circle class="cls-1" cx="70.88" cy="40.53" r="4.95"/><circle class="cls-1" cx="80.52" cy="73.66" r="4.95"/><path class="cls-1" d="M80.52,87.59a4.95,4.95,0,1,0,5,5A5,5,0,0,0,80.52,87.59Z"/><circle class="cls-1" cx="80.52" cy="111.66" r="4.95"/><circle class="cls-1" cx="90.08" cy="40.53" r="4.95"/><path class="cls-1" d="M88.91,47.91a2.3,2.3,0,0,0-2.35,2.35,6,6,0,0,1-12.08,0,2.35,2.35,0,0,0-4.7,0,10.74,10.74,0,0,0,21.48,0A2.41,2.41,0,0,0,88.91,47.91Z"/></svg>