<svg id="レイヤー_1" data-name="レイヤー 1" xmlns="http://www.w3.org/2000/svg" viewBox="0 0 161 161"><defs><style>.cls-1{fill:#fff;}</style></defs><title>ad</title><path class="cls-1" d="M127.85,94.12l-.91-.91L143,77.15a12.63,12.63,0,0,0,3.73-8.69,11.74,11.74,0,0,0-3.48-8.69l-42-42a11.74,11.74,0,0,0-8.69-3.48A12.42,12.42,0,0,0,83.82,18L55.18,46.61A55,55,0,0,0,40,75.25l-.49,2.56L15,102.31a2.45,2.45,0,0,0,0,3.39L24.23,115l.08.09a2,2,0,0,0,.42.24c.16.09.24.17.41.25s.08.08.17.08L41,119.94l4.3,15.72c0,.09.09.09.09.17s.08.16.16.33a2.05,2.05,0,0,0,.33.5c0,.08.09.08.09.16l9.27,9.27a2.41,2.41,0,0,0,1.65.66,2.31,2.31,0,0,0,1.66-.66L83,121.68a54.85,54.85,0,0,0,24.58-10l1.41,1.41a7.51,7.51,0,0,0,5.3,2.23,7.17,7.17,0,0,0,5.29-2.23l8.28-8.28a7.5,7.5,0,0,0,0-10.67Zm-4.22-4.31-4.14-4.14a23.13,23.13,0,0,0,4.14.34,34.14,34.14,0,0,0,4.14-.34Zm-31-70.76h.08a7.23,7.23,0,0,1,5.14,2.07l42,42a6.87,6.87,0,0,1,2.07,5.22,7.62,7.62,0,0,1-2.32,5.38l-1.49,1.49a20.54,20.54,0,0,1-29.05,0L85.64,51.82a20.58,20.58,0,0,1,0-29.13l1.49-1.49a8.24,8.24,0,0,1,5.46-2.15ZM41.44,82.61l6,6L26,110l-6-6Zm7.7,10.93,2.4,9.43-9.43-2.4Zm3.73,14.56,2.73,10.76L45,116l-2.89-10.6Zm7.61,10.76-2.4-9.43,9.43,2.4Zm-3.72-14.65L54.6,95.77l10.51,10.51Zm-26.24,8,6.62-6.62,2.48,9.1Zm25,11.67-6.62,6.62-2.48-9.1ZM56.92,141l-6-6L72.4,113.57l6,6Zm25.57-24.08L44.18,78.56l.49-2.4A50.27,50.27,0,0,1,58.58,50L75.29,33.29A23.34,23.34,0,0,0,75,37.42,25,25,0,0,0,82.41,55.3l20,20A13.32,13.32,0,0,0,94.08,98l10.18,10.18a50.43,50.43,0,0,1-21.77,8.69Zm42-15.56-8.28,8.27a2.74,2.74,0,0,1-3.89,0l-15-15a8.4,8.4,0,0,1-2.48-6,8.66,8.66,0,0,1,2.48-6,8.56,8.56,0,0,1,6-2.48,8.4,8.4,0,0,1,6,2.48l15,15a2.88,2.88,0,0,1,.83,2A2.2,2.2,0,0,1,124.46,101.32Z"/></svg>