<svg id="レイヤー_1" data-name="レイヤー 1" xmlns="http://www.w3.org/2000/svg" viewBox="0 0 161 161"><defs><style>.cls-1{fill:#fff;}</style></defs><title>ad</title><path class="cls-1" d="M45.25,77.05A11.75,11.75,0,1,0,57,88.8,11.75,11.75,0,0,0,45.25,77.05Zm0,18.82a7.07,7.07,0,1,1,7.07-7.07A7.09,7.09,0,0,1,45.25,95.87Z"/><path class="cls-1" d="M106.47,77.05A11.75,11.75,0,1,0,118.22,88.8,11.75,11.75,0,0,0,106.47,77.05Zm0,18.82a7.07,7.07,0,1,1,7.07-7.07A7.09,7.09,0,0,1,106.47,95.87Z"/><path class="cls-1" d="M148.87,81.74h-4.68V74.67a2.38,2.38,0,0,1,2.39-2.39A2.37,2.37,0,0,0,149,69.9V60.45a2.38,2.38,0,0,0-2.38-2.39H137.3a7.19,7.19,0,0,0-7,5.39A80.18,80.18,0,0,0,80.14,53.38a.68.68,0,0,0-.44.18h-.09c-.17.08-.26.17-.44.26a.09.09,0,0,0-.09.09,2.2,2.2,0,0,0-.7,1.06l-2.3,6.8a6.45,6.45,0,0,1-5,3.36H61.68V53.38a2.31,2.31,0,0,0-4-1.68L43.92,65.48,18.48,74.76A2.35,2.35,0,0,0,16.89,77v4.68H12.21A2.38,2.38,0,0,0,9.82,84v9.46a2.38,2.38,0,0,0,2.39,2.38h13a21.16,21.16,0,0,0,39.93,0H86.42a21.16,21.16,0,0,0,39.93,0h22.43a2.38,2.38,0,0,0,2.39-2.38V84A2.22,2.22,0,0,0,148.87,81.74ZM134.74,65.39a2.47,2.47,0,0,1,2.47-2.47h6.89V68a7.06,7.06,0,0,0-4.68,6.63v7.07h-4.68Zm-8.31,16.35a21.57,21.57,0,0,0-8.83-11l5.57-5.56c.61.26,1.23.62,1.94,1,.44.18.79.44,1.24.62,1.23.7,2.47,1.32,3.71,2.12V81.74Zm-39.93,0H80l23-23a73.36,73.36,0,0,1,15.54,4.42L113,68.66A21.09,21.09,0,0,0,86.5,81.74ZM80.23,64.07c.09-.18.18-.27.18-.44L82.26,58l.62-.09.44-.08.62-.09c.27,0,.53-.09.8-.09h.62a4.88,4.88,0,0,0,1.14-.09h4.86c1.68.09,3.54.18,5.57.35L73.17,81.65H65A21.12,21.12,0,0,0,54.7,69.9H71A11,11,0,0,0,80.23,64.07ZM57,59.12v6.1H50.9ZM21.66,78.64l6.45-2.38a18.57,18.57,0,0,0-2.83,5.39H21.66v-3ZM14.6,91.19V86.51h9.54a20.34,20.34,0,0,0,0,4.68Zm30.65,14.13A16.52,16.52,0,1,1,61.77,88.8,16.55,16.55,0,0,1,45.25,105.32Zm21-14.13a20.34,20.34,0,0,0,0-4.68H85.36a20.34,20.34,0,0,0,0,4.68Zm40.2,14.13A16.52,16.52,0,1,1,123,88.8,16.55,16.55,0,0,1,106.47,105.32Zm40-14.13h-19a20.34,20.34,0,0,0,0-4.68h19Z"/></svg>