<svg id="レイヤー_1" data-name="レイヤー 1" xmlns="http://www.w3.org/2000/svg" viewBox="0 0 161 161"><defs><style>.cls-1{fill:#fff;}</style></defs><title>ad</title><path class="cls-1" d="M112.28,68.61h0A8.64,8.64,0,0,0,100,68.53h0a8.64,8.64,0,0,0,0,12.26h0a8.7,8.7,0,0,0,12.26,0h0A8.62,8.62,0,0,0,112.28,68.61Zm-3.29,9a4.08,4.08,0,1,1,0-5.77,3.9,3.9,0,0,1,1.21,2.88A3.8,3.8,0,0,1,109,77.59Z"/><path class="cls-1" d="M105.63,108.83a9.74,9.74,0,1,0,.08,13.78A9.7,9.7,0,0,0,105.63,108.83Zm-3.37,10.66h0a5.16,5.16,0,1,1,.08-7.29,4.85,4.85,0,0,1,1.45,3.68A4.61,4.61,0,0,1,102.26,119.49Z"/><path class="cls-1" d="M70.06,63.81A8,8,0,0,0,58.6,74.94l.16.16a8,8,0,0,0,11.3-11.29Zm-3.37,8a3.38,3.38,0,0,1-4.72,0h0l-.08-.08A3.35,3.35,0,0,1,62,67.09h0a3.38,3.38,0,0,1,4.72,0A3.24,3.24,0,0,1,66.69,71.82Z"/><path class="cls-1" d="M126.22,73.9a50.28,50.28,0,0,0-25-25v-.08a17.57,17.57,0,0,0,.08-2,20.48,20.48,0,0,0-8.89-17l6.73-9.61a2.36,2.36,0,0,0-3.85-2.73l-7,10a20.57,20.57,0,0,0-15.46,0l-7-10.1A2.35,2.35,0,0,0,62,20.14l6.73,9.62a20.8,20.8,0,0,0-8.9,17,17.57,17.57,0,0,0,.08,2v.08A50.09,50.09,0,1,0,126.22,73.9ZM62.93,133.67a3.11,3.11,0,0,1-2.33-1A3.34,3.34,0,1,1,65.33,128l.08.08a3.32,3.32,0,0,1-.16,4.73A3.82,3.82,0,0,1,62.93,133.67ZM78.31,140a44.6,44.6,0,0,1-12.18-2.33A8.68,8.68,0,0,0,68.62,136a8,8,0,0,0,.16-11.13l-.16-.16a8,8,0,0,0-11.3,0,7.75,7.75,0,0,0-2.08,7.53A45.51,45.51,0,0,1,78.39,49.07V140ZM64.53,47.06v-.32a16.07,16.07,0,0,1,32.13-.88v1.2A51.31,51.31,0,0,0,64.53,47.06ZM126.06,96.9a45.43,45.43,0,0,1-13.22,29.8h0A45.43,45.43,0,0,1,83,139.92V49.07A45.66,45.66,0,0,1,126.06,96.9Z"/><path class="cls-1" d="M63.81,86.24a9.77,9.77,0,0,0-13.94,13.7l.16.16a9.66,9.66,0,0,0,13.78,0l.08-.08A9.75,9.75,0,0,0,63.81,86.24ZM60.52,96.82a5.23,5.23,0,0,1-7.21,0l-.08-.08a5.23,5.23,0,0,1,.08-7.14h0a5.16,5.16,0,0,1,7.21,7.22Z"/></svg>