<svg id="レイヤー_1" data-name="レイヤー 1" xmlns="http://www.w3.org/2000/svg" viewBox="0 0 161 161"><defs><style>.cls-1{fill:#fff;}</style></defs><title>ad</title><path class="cls-1" d="M8.36,69.57A4.88,4.88,0,0,0,9.9,73.74a1.89,1.89,0,0,1,.54.72,6.27,6.27,0,0,1,.72,2.08c3,17.94,3.63,20.38,11.15,24.37,3.62,1.9,11,3.17,18.38,3.17,5.8,0,14.13-.73,21-4.35,10.14-5.25,13.85-23.46,14-24.36,0-.09.28-2.27,4.9-2.27h.27c4.35,0,4.71,2.18,4.71,2.45.18.81,3.89,18.93,14,24.27,7,3.62,15.3,4.35,21,4.35,7.43,0,14.76-1.27,18.39-3.17,7.51-4,8.15-6.43,11.14-24.37a4.75,4.75,0,0,1,.72-2.08c.18-.27.36-.45.55-.72A5,5,0,0,0,153,69.66v-1.9c0-1.18.09-2.63,0-3.35-.19-3.63-3.45-5.08-5.08-5.35-10.32-2.08-22.73-2.72-35.77-1.81l-.73.09c-8,.54-12.41.91-17.66,3.26-1.18.55-2.45,1.18-3.53,1.72a35.61,35.61,0,0,1-6.34,2.45,16.49,16.49,0,0,1-1.81.36,9.43,9.43,0,0,1-3.18,0c-.54-.09-1.17-.27-1.81-.36a35.61,35.61,0,0,1-6.34-2.45c-1.08-.54-2.35-1.17-3.53-1.72C62,58.25,57.63,58,49.57,57.34l-.73-.09c-13.13-.91-25.54-.36-35.77,1.81-1.63.27-4.89,1.72-5.08,5.35-.09.72,0,2.08,0,3.35A3.86,3.86,0,0,1,8.36,69.57ZM150.2,65.13v2.72l-3.35-1.36Zm-58,3.9c.54-1.27,3.71-5.44,23.46-6.62q5.16-.27,9-.27c11.68,0,15.39,2.08,17.57,5.44,1.36,2,2.17,6.25,2.26,9,0,5.89-1.18,16.22-9.24,20.2-3.71,1.81-9.33,2.9-14.94,2.9-10.78,0-19.39-3.62-23-9.78C89.51,76.81,92.14,69.21,92.23,69ZM19.32,67.58c2.17-3.36,5.88-5.44,17.57-5.44q3.8,0,9,.27c19.74,1.18,22.91,5.35,23.45,6.71,0,.09,2.63,7.69-5.07,20.65-3.62,6.16-12.23,9.78-23,9.78-5.62,0-11.24-1.09-15-2.9-8.15-3.89-9.33-14.31-9.24-20.2C17.14,73.83,18,69.57,19.32,67.58Zm-8-2.45,3.35,1.36-3.35,1.36Z"/></svg>