<svg id="レイヤー_1" data-name="レイヤー 1" xmlns="http://www.w3.org/2000/svg" viewBox="0 0 161 161"><defs><style>.cls-1{fill:#fff;}</style></defs><title>ad</title><path class="cls-1" d="M102.33,114.11H85.56V99.23a9.29,9.29,0,0,0-9.29-9.3H65.09V79.73l25.29-18.1a1.84,1.84,0,0,0,.77-1.25A2,2,0,0,0,90.8,59L85.21,51.5a1.94,1.94,0,0,0-2.58-.42L63.55,64.29A13,13,0,1,0,43,67.5h-2.1a1.73,1.73,0,0,0-1.39.63l-12,13.35a9.31,9.31,0,0,0,.35,12.79l9.85,9.92a2,2,0,0,0,1.47.56,2.14,2.14,0,0,0,1.39-.77l2.17-3.15v33.68a1.88,1.88,0,0,0,1.89,1.89H55.8a1.88,1.88,0,0,0,1.88-1.89V104.68H70.75V114H65.16a1.88,1.88,0,0,0-1.89,1.89v18.65a1.88,1.88,0,0,0,1.89,1.89H102.4a1.88,1.88,0,0,0,1.89-1.89V115.86A2.09,2.09,0,0,0,102.33,114.11ZM42.66,58.21A9.3,9.3,0,1,1,52,67.5,9.28,9.28,0,0,1,42.66,58.21Zm13.77,13-2.59,5.17-2.59-5.17Zm-13.77,20-3-3.21,3-3ZM55.73,101a1.88,1.88,0,0,0-1.89,1.89v29.84H46.36V80.57a2,2,0,0,0-1.18-1.75,1.84,1.84,0,0,0-2,.42l-7.48,7.48a1.85,1.85,0,0,0,0,2.58l6.08,6.36-3.14,4.4-8.32-8.31A5.66,5.66,0,0,1,30.08,84L41.61,71.21h5.45l5.1,10.13a2,2,0,0,0,2.52.84,2.41,2.41,0,0,0,.84-.84L60.9,70.58,83.26,55.07l3.35,4.47L62.09,77.08a1.84,1.84,0,0,0-.77,1.53V91.68a1.88,1.88,0,0,0,1.88,1.89H76.27a5.61,5.61,0,0,1,5.59,5.59V114H74.38V102.86A1.88,1.88,0,0,0,72.5,101H55.73Zm44.72,31.66H66.91V117.81h33.54Z"/><path class="cls-1" d="M134,39.55a13.09,13.09,0,0,1-13.07-13.06,1.89,1.89,0,1,0-3.77,0,13.09,13.09,0,0,1-13.07,13.06,1.89,1.89,0,1,0,0,3.78,13.09,13.09,0,0,1,13.07,13.06,1.89,1.89,0,1,0,3.77,0A13.09,13.09,0,0,1,134,43.33a1.89,1.89,0,0,0,0-3.78ZM119.1,48.64a17,17,0,0,0-7.19-7.2,17,17,0,0,0,7.19-7.2,17.07,17.07,0,0,0,7.2,7.2A17.07,17.07,0,0,0,119.1,48.64Z"/><rect class="cls-1" x="82.99" y="73.1" width="6.29" height="3.7" transform="translate(-27.65 65.44) rotate(-36.25)"/><rect class="cls-1" x="90.69" y="61.29" width="23.13" height="3.7" transform="translate(-17.54 72.73) rotate(-36.27)"/><rect class="cls-1" x="91.78" y="48.85" width="13.42" height="3.7" transform="translate(-11.58 63.15) rotate(-33.69)"/></svg>