<svg id="レイヤー_1" data-name="レイヤー 1" xmlns="http://www.w3.org/2000/svg" viewBox="0 0 161 161"><defs><style>.cls-1{fill:#fff;}</style></defs><title>ad</title><polygon class="cls-1" points="127.68 86.28 138.1 48.87 43.74 48.87 53.36 86.28 127.68 86.28"/><path class="cls-1" d="M103,131.08a5.92,5.92,0,1,0,5.92,5.92A5.83,5.83,0,0,0,103,131.08Z"/><circle class="cls-1" cx="63.24" cy="137" r="5.92"/><path class="cls-1" d="M103,126.07a10.86,10.86,0,0,0,0,21.71,10.76,10.76,0,0,0,10.86-10.86A11,11,0,0,0,103,126.07Zm0,16.85a5.92,5.92,0,0,1,0-11.84,5.83,5.83,0,0,1,5.92,5.92A6,6,0,0,1,103,142.92Z"/><path class="cls-1" d="M63.24,126.07a10.86,10.86,0,1,0,10.85,10.85A11,11,0,0,0,63.24,126.07Zm0,16.85A5.92,5.92,0,1,1,69.16,137,6,6,0,0,1,63.24,142.92Z"/><path class="cls-1" d="M56,100.79h71.58L140.16,55.7H128.23a39.62,39.62,0,0,0-77.1,0H43.69l-.26-.15L40.31,43.18a13.72,13.72,0,0,0-13.2-10.55H18.6v5.16h8.51a8.57,8.57,0,0,1,8.27,6.45L49.12,97.91a11.32,11.32,0,0,0-4.71,9.1A11.47,11.47,0,0,0,55.8,118.4h69.76v-5.16H55.8A6.36,6.36,0,0,1,49.57,107,6.6,6.6,0,0,1,56,100.79Zm68.4-45.09H91.56V47h29.21A35.74,35.74,0,0,1,124.35,55.7Zm-6.07-12.45H91.56V29A35.81,35.81,0,0,1,118.28,43.25ZM87.8,29V43.25H61.08A35.81,35.81,0,0,1,87.8,29ZM58.58,47H87.8v8.7H55A35.74,35.74,0,0,1,58.58,47ZM44.87,60.48h88.66l-9.8,35.15H53.9Z"/></svg>