<svg id="レイヤー_1" data-name="レイヤー 1" xmlns="http://www.w3.org/2000/svg" viewBox="0 0 161 161"><defs><style>.cls-1{fill:#fff;}</style></defs><title>ad</title><path class="cls-1" d="M99.74,18.77A42.49,42.49,0,0,0,65.89,86.94l-8.64,8.64-.15.15a10.55,10.55,0,0,0-9.64,2.85L21.85,124.19a10.58,10.58,0,0,0,15,15l25.61-25.61a10.43,10.43,0,0,0,3.08-7.48,10.07,10.07,0,0,0-.23-2.16c.08-.07.15-.07.15-.15l8.64-8.64A42.49,42.49,0,1,0,99.74,18.77ZM34,136.29A6.54,6.54,0,1,1,24.71,127L47.84,103.9l9.26,9.26Zm26-26-9.25-9.17a6.24,6.24,0,0,1,4.24-1.54,6.41,6.41,0,0,1,4.62,1.92A6.46,6.46,0,0,1,60,110.3ZM63.57,100a9.94,9.94,0,0,0-1.15-1.39c-.47-.38-.85-.77-1.39-1.15L68.43,90c.77.85,1.62,1.7,2.47,2.47Zm36.17-.15a38.48,38.48,0,1,1,38.48-38.48A38.54,38.54,0,0,1,99.74,99.82Z"/><path class="cls-1" d="M99.74,27.33a34,34,0,1,0,34,34A34.07,34.07,0,0,0,99.74,27.33Zm0,63.93a30,30,0,1,1,30-30A30,30,0,0,1,99.74,91.26Z"/><path class="cls-1" d="M113.62,40a2,2,0,1,0-2.16,3.39A21.38,21.38,0,0,1,116.32,75a2,2,0,0,0,.23,2.77,2.07,2.07,0,0,0,1.23.47,2.09,2.09,0,0,0,1.55-.7,25.37,25.37,0,0,0,5.78-16.19A25,25,0,0,0,113.62,40Z"/><path class="cls-1" d="M104.37,36.28a23.42,23.42,0,0,0-4.63-.39,2,2,0,0,0,0,4,22.74,22.74,0,0,1,3.93.38h.39A2,2,0,0,0,106,38.67,2,2,0,0,0,104.37,36.28Z"/></svg>