<svg id="レイヤー_1" data-name="レイヤー 1" xmlns="http://www.w3.org/2000/svg" viewBox="0 0 161 161"><defs><style>.cls-1{fill:#fff;}</style></defs><title>ad</title><path class="cls-1" d="M74.77,66.34A2.21,2.21,0,1,0,77,68.55,2.22,2.22,0,0,0,74.77,66.34Z"/><path class="cls-1" d="M74.77,93A2.21,2.21,0,1,0,77,95.23,2.22,2.22,0,0,0,74.77,93Z"/><path class="cls-1" d="M74.77,119.7A2.21,2.21,0,1,0,77,121.91,2.22,2.22,0,0,0,74.77,119.7Z"/><path class="cls-1" d="M117.46,61.93a6.69,6.69,0,1,0,6.69,6.69A6.68,6.68,0,0,0,117.46,61.93Zm0,8.89a2.21,2.21,0,1,1,2.2-2.2A2.22,2.22,0,0,1,117.46,70.82Z"/><path class="cls-1" d="M48.09,66.34H39.2a2.21,2.21,0,0,0,0,4.41h8.89a2.21,2.21,0,1,0,0-4.41Z"/><path class="cls-1" d="M65.88,66.34H57a2.21,2.21,0,1,0,0,4.41h8.89a2.21,2.21,0,1,0,0-4.41Z"/><path class="cls-1" d="M117.46,88.61a6.69,6.69,0,1,0,6.69,6.69A6.68,6.68,0,0,0,117.46,88.61Zm0,8.89a2.21,2.21,0,1,1,2.2-2.2A2.22,2.22,0,0,1,117.46,97.5Z"/><path class="cls-1" d="M48.09,93H39.2a2.21,2.21,0,0,0,0,4.41h8.89a2.21,2.21,0,1,0,0-4.41Z"/><path class="cls-1" d="M65.88,93H57a2.21,2.21,0,1,0,0,4.41h8.89a2.21,2.21,0,1,0,0-4.41Z"/><path class="cls-1" d="M117.46,115.29a6.69,6.69,0,1,0,6.69,6.69A6.68,6.68,0,0,0,117.46,115.29Zm0,8.89a2.21,2.21,0,1,1,2.2-2.2A2.22,2.22,0,0,1,117.46,124.18Z"/><path class="cls-1" d="M137.45,58.37a14.93,14.93,0,0,0-1.64-6.9l-10.67-24a.07.07,0,0,0-.07-.07,6.63,6.63,0,0,0-6-3.7H41.9a6.63,6.63,0,0,0-6,3.7.07.07,0,0,1-.07.07l-10.67,24a15.18,15.18,0,0,0-1.64,6.9V77.44a6.42,6.42,0,0,0,1.71,4.41,6.7,6.7,0,0,0-1.71,4.41v17.79a6.42,6.42,0,0,0,1.71,4.41,6.68,6.68,0,0,0-1.71,4.41v17.79a6.67,6.67,0,0,0,6.69,6.68H130.76a6.67,6.67,0,0,0,6.69-6.68V112.87a6.42,6.42,0,0,0-1.71-4.41,6.7,6.7,0,0,0,1.71-4.41V86.26a6.44,6.44,0,0,0-1.71-4.41,6.68,6.68,0,0,0,1.71-4.41V58.37ZM40,29.35a2.26,2.26,0,0,1,2-1.21h77.19a2.21,2.21,0,0,1,2,1.21L131.69,53H29.45ZM133,130.87a2.22,2.22,0,0,1-2.21,2.2H30.31a2.22,2.22,0,0,1-2.21-2.2V113.08a2.22,2.22,0,0,1,2.21-2.2H130.83a2.22,2.22,0,0,1,2.21,2.2Zm0-26.68a2.22,2.22,0,0,1-2.21,2.21H30.31a2.22,2.22,0,0,1-2.21-2.21V86.4a2.22,2.22,0,0,1,2.21-2.2H130.83A2.22,2.22,0,0,1,133,86.4Zm0-26.68a2.22,2.22,0,0,1-2.21,2.21H30.31a2.22,2.22,0,0,1-2.21-2.21V58.37a4.08,4.08,0,0,1,.07-.92H133c0,.28.07.64.07.92V77.51Z"/><path class="cls-1" d="M48.09,119.7H39.2a2.21,2.21,0,0,0,0,4.41h8.89a2.21,2.21,0,1,0,0-4.41Z"/><path class="cls-1" d="M65.88,119.7H57a2.21,2.21,0,1,0,0,4.41h8.89a2.21,2.21,0,1,0,0-4.41Z"/></svg>