<svg id="レイヤー_1" data-name="レイヤー 1" xmlns="http://www.w3.org/2000/svg" viewBox="0 0 161 161"><defs><style>.cls-1{fill:#fff;}</style></defs><title>ad</title><path class="cls-1" d="M148.86,58.53a9.7,9.7,0,0,0-2-5.91L136,38.79a9.48,9.48,0,0,0-12.16-2.12l-10.59,6.58a10.25,10.25,0,0,1-4.91,1.23,8.51,8.51,0,0,1-3.68-.78l-10.37-5A12.81,12.81,0,0,0,89,37.57a13.08,13.08,0,0,0-7.59,2.23l-1.22.89c-1-.45-2.46-1.23-4.13-2a15,15,0,0,0-6.69-1.34,15.86,15.86,0,0,0-6.14,1.12l-7,3a14.28,14.28,0,0,1-4.8.78,14.47,14.47,0,0,1-4.79-.78l-7-3a10.19,10.19,0,0,0-4-.78,12.77,12.77,0,0,0-4.57.89,10.27,10.27,0,0,0-3.91,2.68L14.26,55.63a8.12,8.12,0,0,0-2.12,5.58A8.47,8.47,0,0,0,15,67.56L27,77.82l-5.69,5.91a8.61,8.61,0,0,0-2.34,5.8,8.39,8.39,0,0,0,2.68,6.14l1.11,1.11a8.39,8.39,0,0,0,3.8,2,7.44,7.44,0,0,0-1,4,8.39,8.39,0,0,0,2.68,6.14h0l1.11,1.11a8.67,8.67,0,0,0,5.91,2.34,8.9,8.9,0,0,0,3.35-.67,8.07,8.07,0,0,0,2.34,4.13L42,117a8.63,8.63,0,0,0,5.91,2.34,7.8,7.8,0,0,0,4.68-1.45,9.22,9.22,0,0,0,2.23,3.68L56,122.65A8.64,8.64,0,0,0,61.88,125,8.39,8.39,0,0,0,68,122.32l5-5.24,6.8,6.35a8.21,8.21,0,0,0,5.8,2.23A8.61,8.61,0,0,0,91.87,123L93,121.87a8.9,8.9,0,0,0,1.9-3.45l2.67,2.45a8.26,8.26,0,0,0,5.8,2.23,8.62,8.62,0,0,0,6.25-2.68l1.11-1.11a7.82,7.82,0,0,0,2.12-4.69A6.81,6.81,0,0,0,115,115a8.59,8.59,0,0,0,6.24-2.68l1.12-1.11a8.27,8.27,0,0,0,2.23-5.8,11.18,11.18,0,0,0-.22-1.9,8.69,8.69,0,0,0,5.13-2.56l1.11-1.12A8.26,8.26,0,0,0,132.8,94a8.61,8.61,0,0,0-2.67-6.24l-2-1.9,18.4-20.29A12.64,12.64,0,0,0,148.86,58.53ZM28.64,94.22a4,4,0,0,1-2.67-1L24.85,92.1a4,4,0,0,1-1.22-2.79,3.63,3.63,0,0,1,1.11-2.68l11.6-12.15a3.9,3.9,0,0,1,5.46-.22l1.12,1.11a7.3,7.3,0,0,1,1.23,2.79,4.07,4.07,0,0,1-.67,2.23l-12.61,13A3.43,3.43,0,0,1,28.64,94.22Zm9.26,12.15a3.91,3.91,0,0,1-5.46.23l-1.12-1.12h0a4,4,0,0,1-1.23-2.79A3.62,3.62,0,0,1,31.21,100L46.82,83.73a4.1,4.1,0,0,1,2.68-1.11,4,4,0,0,1,2.67,1l1.12,1.12a4,4,0,0,1,1.23,2.79A3.62,3.62,0,0,1,53.4,90.2Zm12.71,6.92a3.92,3.92,0,0,1-5.46.22L44,112.39a4,4,0,0,1-1.22-2.78,4.12,4.12,0,0,1,.89-2.46L54.52,95.89a3.91,3.91,0,0,1,2.56-1,4,4,0,0,1,2.68,1L60.87,97a4,4,0,0,1,1.23,2.79A3.63,3.63,0,0,1,61,102.47Zm20.52-1.23-6.58,6.8a3.9,3.9,0,0,1-5.46.22L58,118a4,4,0,0,1-1.22-2.79,3.61,3.61,0,0,1,1.11-2.67l6.58-6.81a3.93,3.93,0,0,1,5.47-.22L71,106.6a4,4,0,0,1,1.23,2.78A3.63,3.63,0,0,1,71.13,112.06Zm57-18.62a3.53,3.53,0,0,1-1,2.56L126,97.12a3.93,3.93,0,0,1-5.47.22l-18.28-17-3.13,3.34,19.63,18.18a3.91,3.91,0,0,1,.22,5.47l-1.11,1.11a3.91,3.91,0,0,1-5.47.22L94.1,91.76,91,95.11l16.28,15a4,4,0,0,1,1.23,2.79,3.53,3.53,0,0,1-1,2.57l-1.12,1.11a3.9,3.9,0,0,1-5.46.22L84.74,101.91h0l-3.13,3.35h0l.12.11,8.14,7.47A4.1,4.1,0,0,1,91,115.52a3.71,3.71,0,0,1-1,2.56l-1.12,1.12a3.92,3.92,0,0,1-5.46.22l-7-6.58a8,8,0,0,0,1-3.79,8.42,8.42,0,0,0-2.68-6.14l-1.11-1.11a8.67,8.67,0,0,0-5.91-2.34h-.45v-.11c0-2.23-2.68-6.14-2.68-6.14L63.44,92.1a9.13,9.13,0,0,0-4.24-2.23A8,8,0,0,0,57.08,81L56,79.83a8.67,8.67,0,0,0-5.91-2.34,2.25,2.25,0,0,0-.79.11,8.88,8.88,0,0,0-2.56-5.91h0l-1.12-1.12a8.63,8.63,0,0,0-5.91-2.34,8.39,8.39,0,0,0-6.13,2.68l-2.79,2.9L18.61,63.44a3.77,3.77,0,0,1-1.34-2.9,3.43,3.43,0,0,1,1-2.45L31.1,43.7a5.74,5.74,0,0,1,2.12-1.45A8.1,8.1,0,0,1,36,41.69a4.9,4.9,0,0,1,2.23.45l7,3a16.49,16.49,0,0,0,6.58,1.23,16.14,16.14,0,0,0,6.58-1.23l7-3a12.08,12.08,0,0,1,4.35-.78,11.3,11.3,0,0,1,4.69.89c.67.33,1.34.67,1.89.89l-7.13,5A8.34,8.34,0,0,0,65.67,55a8.75,8.75,0,0,0,1.67,5h0l1,1.23a9.43,9.43,0,0,0,7.48,3.68,10.12,10.12,0,0,0,4.68-1.23l4.35-2.56a7,7,0,0,1,3.57-.9,7.29,7.29,0,0,1,4.23,1.23l11.94,8.48c2.67,1.89,6.91,5.46,9.36,7.58L127.67,90.2C127.67,91.43,128.12,92.43,128.12,93.44ZM143,62,124.66,82.28l-8.36-7.69a115.59,115.59,0,0,0-9.82-8L94.55,58.09a12.67,12.67,0,0,0-12.94-.45L77.27,60.2a3.89,3.89,0,0,1-2.23.56A4.55,4.55,0,0,1,71.36,59l-.9-1.23h0a3.45,3.45,0,0,1-.78-2.23,3.72,3.72,0,0,1,1.56-3L84,43.59a9.1,9.1,0,0,1,4.9-1.34,7.09,7.09,0,0,1,3.35.67l10.37,5a12.92,12.92,0,0,0,5.8,1.22,14.21,14.21,0,0,0,7.36-1.89l10.59-6.58a4.1,4.1,0,0,1,2.35-.67,4.83,4.83,0,0,1,3.68,1.67l10.81,13.83a4.77,4.77,0,0,1,1,3.12A5.16,5.16,0,0,1,143,62Z"/><path class="cls-1" d="M85.63,126.16a8.71,8.71,0,0,1-6.14-2.36l-6.44-6-4.68,4.88a8.81,8.81,0,0,1-6.49,2.83A9.11,9.11,0,0,1,55.63,123l-1.13-1.13a9.27,9.27,0,0,1-2.13-3.26,8.42,8.42,0,0,1-4.43,1.18,9.12,9.12,0,0,1-6.25-2.48l-1.13-1.13a8.66,8.66,0,0,1-2.34-3.81,9.16,9.16,0,0,1-9.25-2l-1.13-1.13A8.84,8.84,0,0,1,25,102.8a7.5,7.5,0,0,1,.78-3.69,8.81,8.81,0,0,1-3.4-2L21.27,96a8.81,8.81,0,0,1-2.83-6.49,9.12,9.12,0,0,1,2.48-6.14l5.32-5.53L14.71,67.94a9,9,0,0,1-3.07-6.73,8.67,8.67,0,0,1,2.25-5.92L26.71,40.91a10.71,10.71,0,0,1,4.1-2.81,13.26,13.26,0,0,1,4.75-.92,10.78,10.78,0,0,1,4.21.82l7,3a13.87,13.87,0,0,0,4.59.74A13.72,13.72,0,0,0,56,41l7-3a16.15,16.15,0,0,1,6.33-1.16,15.3,15.3,0,0,1,6.91,1.39c.83.39,1.62.78,2.32,1.13s1.08.55,1.53.75l1-.72A13.64,13.64,0,0,1,89,37.07a13.23,13.23,0,0,1,5.56,1.16l10.38,5a8.09,8.09,0,0,0,3.46.73A9.76,9.76,0,0,0,113,42.82l10.59-6.57a10,10,0,0,1,12.81,2.24l10.82,13.82a10.18,10.18,0,0,1,2.11,6.22,13.12,13.12,0,0,1-2.43,7.3l-18.11,20,1.65,1.56A9,9,0,0,1,133.3,94a8.69,8.69,0,0,1-2.36,6.14l-1.13,1.13a9.2,9.2,0,0,1-4.91,2.63,8.77,8.77,0,0,1-2.22,7.62l-1.12,1.13a9.08,9.08,0,0,1-6.6,2.82,7.5,7.5,0,0,1-1.69-.2,8.5,8.5,0,0,1-2.18,4.39L110,120.78a9.08,9.08,0,0,1-6.6,2.82,8.71,8.71,0,0,1-6.14-2.37l-2.1-1.92a9.16,9.16,0,0,1-1.76,2.89l-1.13,1.14A9.08,9.08,0,0,1,85.63,126.16ZM73,116.38l7.16,6.69a7.75,7.75,0,0,0,5.46,2.09,8.06,8.06,0,0,0,5.88-2.51l1.13-1.13a8.28,8.28,0,0,0,1.76-3.24l.22-.79,3.28,3a7.76,7.76,0,0,0,5.46,2.1,8.07,8.07,0,0,0,5.88-2.52l1.13-1.13a7.28,7.28,0,0,0,2-4.36l0-.65.61.21a6.33,6.33,0,0,0,2,.31,8.07,8.07,0,0,0,5.88-2.52l1.13-1.13a7.74,7.74,0,0,0,2.08-5.44,8.4,8.4,0,0,0-.18-1.57l-.12-.76.52-.06a8.13,8.13,0,0,0,4.83-2.43l1.12-1.11A7.72,7.72,0,0,0,132.3,94a8.09,8.09,0,0,0-2.52-5.88l-2.36-2.23,18.73-20.66a12.15,12.15,0,0,0,2.21-6.69,9.17,9.17,0,0,0-1.91-5.61L135.64,39.1a9,9,0,0,0-11.5-2l-10.59,6.58a10.82,10.82,0,0,1-5.17,1.3,9,9,0,0,1-3.9-.83l-10.37-5A12.31,12.31,0,0,0,89,38.07a12.62,12.62,0,0,0-7.3,2.14l-1.45,1L80,41.15c-.51-.23-1.13-.54-1.83-.89s-1.47-.74-2.3-1.13a14.3,14.3,0,0,0-6.48-1.29,15.18,15.18,0,0,0-5.94,1.08l-7,3a15.12,15.12,0,0,1-5,.82,15,15,0,0,1-5-.82l-7-3a10.92,10.92,0,0,0-8.21.12,9.7,9.7,0,0,0-3.72,2.54L14.63,56a7.7,7.7,0,0,0-2,5.25,8,8,0,0,0,2.73,6L27.7,77.79l-6.06,6.29a8.15,8.15,0,0,0-2.2,5.45A7.85,7.85,0,0,0,22,95.3l1.13,1.13a7.83,7.83,0,0,0,3.55,1.87l.64.15L27,99a6.89,6.89,0,0,0-.94,3.73,7.87,7.87,0,0,0,2.52,5.81l1.13,1.13a8.18,8.18,0,0,0,8.71,1.56l.55-.22.13.58a7.64,7.64,0,0,0,2.21,3.88l1.11,1.11a8.14,8.14,0,0,0,5.56,2.2,7.24,7.24,0,0,0,4.38-1.35l.56-.42.22.66a8.67,8.67,0,0,0,2.1,3.49l1.12,1.11a8.13,8.13,0,0,0,5.56,2.19A7.87,7.87,0,0,0,67.65,122Zm13.06,4.54a4.47,4.47,0,0,1-3-1.12l-7.32-6.86.19-.34a7.63,7.63,0,0,0,.94-3.55,7.85,7.85,0,0,0-2.52-5.77l-1.13-1.13A8.12,8.12,0,0,0,67.68,100h-1v-.61c0-1.71-1.87-4.8-2.59-5.85l-1.06-1a8.63,8.63,0,0,0-4-2.09l-.57-.13.2-.54a7.68,7.68,0,0,0,.53-2.61,7.85,7.85,0,0,0-2.52-5.77l-1.13-1.13A8.12,8.12,0,0,0,50.06,78a1.84,1.84,0,0,0-.63.08l-.62.21,0-.65A8.44,8.44,0,0,0,46.36,72l-1.12-1.11a8.14,8.14,0,0,0-5.56-2.2,7.85,7.85,0,0,0-5.76,2.52L30.8,74.5,18.28,63.82a4.26,4.26,0,0,1-1.51-3.28,4,4,0,0,1,1.15-2.81l12.8-14.36A6.48,6.48,0,0,1,33,41.78a8.74,8.74,0,0,1,3-.59,5.5,5.5,0,0,1,2.46.5l7,3a15.86,15.86,0,0,0,6.38,1.19,15.46,15.46,0,0,0,6.38-1.19l7-3a12.77,12.77,0,0,1,4.54-.82,11.73,11.73,0,0,1,4.91.94c.66.33,1.33.66,1.86.88l.86.34-7.9,5.55A7.9,7.9,0,0,0,66.17,55a8.26,8.26,0,0,0,1.58,4.73l1,1.2a8.93,8.93,0,0,0,7.09,3.5,9.62,9.62,0,0,0,4.44-1.17l4.33-2.55a7.57,7.57,0,0,1,3.83-1A7.69,7.69,0,0,1,93,61l11.92,8.46c3.05,2.16,8,6.37,9.4,7.61L128.17,90v.22a8.2,8.2,0,0,0,.23,1.68,7.62,7.62,0,0,1,.22,1.56,4,4,0,0,1-1.15,2.91l-1.12,1.12a4.42,4.42,0,0,1-6.14.25L102.27,81.09l-2.44,2.62,19.26,17.83a4.54,4.54,0,0,1,1.39,3.16,4.48,4.48,0,0,1-1.13,3l-1.14,1.14a4.39,4.39,0,0,1-6.14.25L94.13,92.47l-2.44,2.61L107.6,109.8A4.5,4.5,0,0,1,109,113a4,4,0,0,1-1.15,2.92L106.73,117a4.55,4.55,0,0,1-3.15,1.37,4.48,4.48,0,0,1-3-1.13L84.76,102.62l-2.44,2.61,7.88,7.24a4.59,4.59,0,0,1,1.28,3,4.23,4.23,0,0,1-1.15,2.92l-1.11,1.11A4.55,4.55,0,0,1,86.07,120.92ZM77,112.73l6.75,6.32a3.42,3.42,0,0,0,4.77-.21l1.11-1.11a3.22,3.22,0,0,0,.86-2.21,3.61,3.61,0,0,0-1-2.36l-8.57-7.89,3.79-4.06,16.54,15.28a3.48,3.48,0,0,0,2.33.87,3.56,3.56,0,0,0,2.44-1.08l1.11-1.12A3,3,0,0,0,108,113a3.48,3.48,0,0,0-1.08-2.43L90.27,95.14l3.81-4.08,18.65,17.29a3.48,3.48,0,0,0,2.34.87,3.52,3.52,0,0,0,2.43-1.08l1.12-1.12a3.44,3.44,0,0,0,.86-2.32,3.56,3.56,0,0,0-1.08-2.44l-20-18.5,3.81-4.08L120.87,97a3.48,3.48,0,0,0,2.34.87,3.52,3.52,0,0,0,2.44-1.08l1.11-1.11a3.06,3.06,0,0,0,.86-2.21,6.68,6.68,0,0,0-.2-1.35,10,10,0,0,1-.24-1.67L113.61,77.86c-1.41-1.22-6.29-5.41-9.31-7.55L92.37,61.84a6.82,6.82,0,0,0-4-1.14,6.56,6.56,0,0,0-3.31.82l-4.36,2.57a10.56,10.56,0,0,1-4.93,1.3A9.93,9.93,0,0,1,68,61.51L67,60.3A9.27,9.27,0,0,1,65.17,55,8.91,8.91,0,0,1,69,47.75l6.41-4.51-1.09-.53a12.68,12.68,0,0,0-8.64-.11l-7,3a16.51,16.51,0,0,1-6.78,1.27,16.91,16.91,0,0,1-6.78-1.27l-7-3a4.47,4.47,0,0,0-2-.41,7.68,7.68,0,0,0-2.61.53,5.46,5.46,0,0,0-1.94,1.33L18.65,58.42a2.93,2.93,0,0,0-.88,2.12,3.26,3.26,0,0,0,1.17,2.52L30.73,73.12l2.46-2.56a8.84,8.84,0,0,1,6.49-2.83,9.15,9.15,0,0,1,6.26,2.48l1.12,1.13A9.26,9.26,0,0,1,49.73,77h.33a9.12,9.12,0,0,1,6.25,2.48l1.12,1.12a8.83,8.83,0,0,1,2.83,6.49,8.47,8.47,0,0,1-.41,2.43,9.76,9.76,0,0,1,3.92,2.22l1.14,1.13c.16.22,2.54,3.72,2.8,6.1a9.15,9.15,0,0,1,6.22,2.47l1.12,1.13a8.81,8.81,0,0,1,2.83,6.49A8.55,8.55,0,0,1,77,112.73Zm-15.22,7.86a4.49,4.49,0,0,1-3-1.13l-1.14-1.14a4.51,4.51,0,0,1-1.37-3.14,4.15,4.15,0,0,1,1.26-3l6.57-6.79A4.53,4.53,0,0,1,67.23,104a4.47,4.47,0,0,1,3,1.12l1.14,1.14a4.49,4.49,0,0,1,1.38,3.14,4.19,4.19,0,0,1-1.26,3l-6.58,6.8A4.51,4.51,0,0,1,61.77,120.59ZM67.23,105a3.52,3.52,0,0,0-2.44,1.08l-6.57,6.79a3.14,3.14,0,0,0-1,2.33,3.52,3.52,0,0,0,1.08,2.44l1.11,1.11a3.42,3.42,0,0,0,4.76-.22l6.58-6.8a3.18,3.18,0,0,0,1-2.33A3.54,3.54,0,0,0,70.67,107l-1.12-1.12A3.48,3.48,0,0,0,67.23,105ZM47.82,115a4.52,4.52,0,0,1-3-1.12l-1.14-1.14a4.53,4.53,0,0,1-1.37-3.14,4.61,4.61,0,0,1,1-2.75L54.16,95.54a4.41,4.41,0,0,1,2.92-1.15,4.47,4.47,0,0,1,3,1.12l1.15,1.14a4.53,4.53,0,0,1,1.37,3.14,4.09,4.09,0,0,1-1.26,3L51,113.64A4.55,4.55,0,0,1,47.82,115Zm9.26-19.62a3.43,3.43,0,0,0-2.24.88L44.06,107.5a3.54,3.54,0,0,0-.75,2.11A3.5,3.5,0,0,0,44.39,112l1.11,1.12a3.51,3.51,0,0,0,2.32.85,3.55,3.55,0,0,0,2.44-1.07l10.36-10.82a3.15,3.15,0,0,0,1-2.33,3.48,3.48,0,0,0-1.08-2.43L59.4,96.24A3.43,3.43,0,0,0,57.08,95.39Zm-22,12.71a4.52,4.52,0,0,1-3-1.12L31,105.83a4.48,4.48,0,0,1-1.38-3.14,4.1,4.1,0,0,1,1.27-3L46.47,83.38a4.4,4.4,0,0,1,6-.14l1.14,1.14A4.52,4.52,0,0,1,55,87.53a4.16,4.16,0,0,1-1.27,3l-15.5,16.17A4.51,4.51,0,0,1,35.11,108.1Zm14.39-25a3.62,3.62,0,0,0-2.35,1L31.57,100.36a3.15,3.15,0,0,0-1,2.33,3.56,3.56,0,0,0,1.08,2.44l1.12,1.11a3.44,3.44,0,0,0,2.32.86A3.48,3.48,0,0,0,37.54,106L53,89.86a3.15,3.15,0,0,0,1-2.33,3.54,3.54,0,0,0-1.08-2.44L51.82,84A3.44,3.44,0,0,0,49.5,83.12ZM28.64,94.72a4.48,4.48,0,0,1-3-1.13L24.5,92.45a4.53,4.53,0,0,1-1.37-3.14,4.15,4.15,0,0,1,1.26-3L36,74.13a4.42,4.42,0,0,1,6.15-.26L43.27,75a7.28,7.28,0,0,1,1.38,3.14,4.55,4.55,0,0,1-.76,2.51L31.23,93.78A3.9,3.9,0,0,1,28.64,94.72Zm10.49-21a3.56,3.56,0,0,0-2.44,1.08L25.1,87a3.14,3.14,0,0,0-1,2.33,3.48,3.48,0,0,0,1.08,2.43l1.11,1.12a3.47,3.47,0,0,0,2.32.86,2.89,2.89,0,0,0,1.91-.67L43.12,80a3.57,3.57,0,0,0,.53-1.88,6.51,6.51,0,0,0-1.14-2.51l-1.06-1A3.45,3.45,0,0,0,39.13,73.75ZM124.69,83,116,75a115.9,115.9,0,0,0-9.77-8L94.26,58.49a12.19,12.19,0,0,0-12.39-.42l-4.35,2.56a4.36,4.36,0,0,1-2.48.63,5,5,0,0,1-4.09-2L70.06,58a3.85,3.85,0,0,1-.88-2.52A4.2,4.2,0,0,1,71,52.09l12.7-8.91a9.66,9.66,0,0,1,5.19-1.43,7.49,7.49,0,0,1,3.6.74l10.34,5a12.41,12.41,0,0,0,5.58,1.17,13.61,13.61,0,0,0,7.1-1.82l10.59-6.58a4.64,4.64,0,0,1,2.61-.74,5.27,5.27,0,0,1,4.07,1.87l10.82,13.82a5.29,5.29,0,0,1,1.11,3.43,5.69,5.69,0,0,1-1.35,3.68h0Zm-37-27.41a12,12,0,0,1,7.2,2.1l11.93,8.47a115.09,115.09,0,0,1,9.87,8.08l8,7.34,18-19.91a4.65,4.65,0,0,0,1.1-3,4.26,4.26,0,0,0-.89-2.79L132,42a4.3,4.3,0,0,0-3.28-1.48,3.64,3.64,0,0,0-2.07.58L116,47.69a14.56,14.56,0,0,1-7.62,2,13.35,13.35,0,0,1-6-1.28L92,43.37a6.67,6.67,0,0,0-3.13-.62A8.64,8.64,0,0,0,84.24,44L71.53,52.92a3.22,3.22,0,0,0-1.35,2.6,2.91,2.91,0,0,0,.67,1.91l.91,1.25A4,4,0,0,0,75,60.26,3.33,3.33,0,0,0,77,59.79l4.37-2.58A12,12,0,0,1,87.64,55.58Z"/></svg>