<svg id="レイヤー_1" data-name="レイヤー 1" xmlns="http://www.w3.org/2000/svg" viewBox="0 0 161 161"><defs><style>.cls-1{fill:#fff;}</style></defs><title>ad</title><path class="cls-1" d="M89.33,42.45a2.18,2.18,0,0,0,2.94,0l4.23-4.24a5.11,5.11,0,0,0,0-7.17,5.1,5.1,0,0,0-5.7-1,5,5,0,0,0-5.7,1.06,5.09,5.09,0,0,0,0,7.16ZM88,33.89a1,1,0,0,1,1.3,0,2.05,2.05,0,0,0,2.93,0,.85.85,0,0,1,.66-.24.84.84,0,0,1,.65.24.85.85,0,0,1,.24.66.84.84,0,0,1-.24.65L90.72,38,88,35.2A1,1,0,0,1,88,33.89Z"/><path class="cls-1" d="M124.11,106.87l4.24,4.23a1.93,1.93,0,0,0,1.46.57,2,2,0,0,0,1.47-.57l4.23-4.23a5,5,0,0,0-5.7-8.15,5.12,5.12,0,0,0-5.7,1,4.92,4.92,0,0,0-1.47,3.58A4.8,4.8,0,0,0,124.11,106.87Zm2.93-4.24a.84.84,0,0,1,.65-.24.85.85,0,0,1,.66.24,2.05,2.05,0,0,0,2.93,0,1,1,0,0,1,1.3,0,.94.94,0,0,1,0,1.39l-2.77,2.77L127,104a.84.84,0,0,1-.24-.65,1,1,0,0,1,.24-.74Z"/><path class="cls-1" d="M99.51,73.07l9.29,9.28a1.94,1.94,0,0,0,1.46.57,2.09,2.09,0,0,0,1.47-.57L121,73.07a8.72,8.72,0,0,0,0-12.22,8.63,8.63,0,0,0-6.11-2.52,8.48,8.48,0,0,0-4.65,1.38A8.62,8.62,0,0,0,99.51,73.07Zm2.94-9.29a4.53,4.53,0,0,1,6.35,0,2.05,2.05,0,0,0,2.93,0,4.67,4.67,0,0,1,6.43,0,4.52,4.52,0,0,1,0,6.44L110.26,78l-7.81-7.82a4.51,4.51,0,0,1,0-6.44Z"/><path class="cls-1" d="M13,110.53a2.19,2.19,0,0,0,1.14,1.14l83.56,34.62a2.49,2.49,0,0,0,.82.16,2,2,0,0,0,1.87-1.3l11.24-27.21h29.48a2,2,0,0,0,2-2V25.42a2,2,0,0,0-2-2H79.48a2,2,0,0,0-2,2v3.91l-31,12.87a2.26,2.26,0,0,0-1.14,1.14,1.76,1.76,0,0,0,0,1.55l1.55,3.66-23.7,23.7a2.06,2.06,0,0,0,0,2.94L25.89,78,13,109A1.74,1.74,0,0,0,13,110.53Zm86.9,7.41L82.9,125,80,117.94Zm1.63,3.83-13,13-5.38-5.37ZM97.4,141.64l-7.09-2.93,14.09-14.09ZM139.1,27.46v86.33H81.51V27.46ZM77.36,33.81v77.86L49.83,45.21ZM48.53,52.63l29.73,72L29.72,76.08h0L27.44,73.8ZM29,81.13,84,136.19,17.58,108.66Z"/><path class="cls-1" d="M36.31,100.19a5.12,5.12,0,0,0-6.59-2.77L24.18,99.7A2.07,2.07,0,0,0,23,102.39l2.28,5.54A5,5,0,0,0,30,111a5.55,5.55,0,0,0,2-.41,5.08,5.08,0,0,0,2.76-2.76,4.67,4.67,0,0,0,.41-2.12,4.38,4.38,0,0,0,1.22-1.79A4.32,4.32,0,0,0,36.31,100.19Zm-3.74,2.28a.74.74,0,0,1-.49.49,2.19,2.19,0,0,0-1.14,1.14,1.7,1.7,0,0,0,0,1.55.77.77,0,0,1,0,.73.72.72,0,0,1-.49.49.49.49,0,0,1-.33.08,1,1,0,0,1-.89-.57l-1.55-3.67,3.67-1.54a1,1,0,0,1,1.22.49,2.51,2.51,0,0,1,0,.81Z"/><path class="cls-1" d="M34.68,78.12a2,2,0,0,0,1.47.57,2.09,2.09,0,0,0,1.47-.57l1.46-1.47,1.47,1.47a2.05,2.05,0,0,0,0,2.93,1.94,1.94,0,0,0,1.46.57,2,2,0,0,0,1.47-.57l2.93-2.93a2.07,2.07,0,0,0-2.93-2.93L42,73.72l1.47-1.47a2.07,2.07,0,1,0-2.93-2.93l-1.47,1.47-1.46-1.47a2.08,2.08,0,1,0-2.94,2.93l1.47,1.47-1.47,1.47A2.07,2.07,0,0,0,34.68,78.12Z"/><path class="cls-1" d="M67.51,46.36l-6.68-2.77a1.7,1.7,0,0,0-1.55,0,2.19,2.19,0,0,0-1.14,1.14L55.37,51.4a1.76,1.76,0,0,0,0,1.55,2.22,2.22,0,0,0,1.14,1.14l6.68,2.77A2.43,2.43,0,0,0,64,57a2,2,0,0,0,1.88-1.3L68.65,49a2.07,2.07,0,0,0-1.14-2.68ZM62.78,52.3l-2.93-1.22,1.22-2.93L64,49.37Z"/></svg>