<svg id="レイヤー_1" data-name="レイヤー 1" xmlns="http://www.w3.org/2000/svg" viewBox="0 0 161 161"><defs><style>.cls-1{fill:#fff;}</style></defs><title>ad</title><path class="cls-1" d="M68.27,71.15a5,5,0,0,0-5,5v1.16a5.87,5.87,0,0,0-1.65-.22,7.41,7.41,0,1,0,0,14.81,6.73,6.73,0,0,0,1.65-.21v1.15a5,5,0,0,0,5,5H81.15a1.65,1.65,0,0,0,0-3.3H68.27a1.68,1.68,0,0,1-1.65-1.66V76.26a1.67,1.67,0,0,1,1.65-1.66H92.94a1.68,1.68,0,0,1,1.66,1.66V92.94a1.68,1.68,0,0,1-1.66,1.66H88a1.65,1.65,0,0,0,0,3.3h5a5,5,0,0,0,5-5V91.72a6.21,6.21,0,0,0,1.65.21,7.41,7.41,0,1,0,0-14.81,6.19,6.19,0,0,0-1.65.22V76.18a5.06,5.06,0,0,0-5-5H82.3V69a6.47,6.47,0,0,0-1.66-12.73,6.5,6.5,0,0,0-6.47,6.48A6.4,6.4,0,0,0,79,69v2.16Zm-6.68,17.4a4,4,0,1,1,0-8,4.5,4.5,0,0,1,1.65.36V88.2A3.34,3.34,0,0,1,61.59,88.55Zm38-8a4,4,0,0,1,0,8.06A4.62,4.62,0,0,1,98,88.27V80.93A3.22,3.22,0,0,1,99.63,80.57ZM77.48,62.74a3.08,3.08,0,0,1,3.09-3.1,3.1,3.1,0,0,1,0,6.19A3.07,3.07,0,0,1,77.48,62.74Z"/><path class="cls-1" d="M92.94,98.4H88a2.15,2.15,0,0,1,0-4.3h5a1.18,1.18,0,0,0,1.16-1.16V76.26a1.18,1.18,0,0,0-1.16-1.16H68.27a1.18,1.18,0,0,0-1.15,1.16V92.94a1.17,1.17,0,0,0,1.15,1.16H81.15a2.15,2.15,0,0,1,0,4.3H68.27a5.54,5.54,0,0,1-5.53-5.53v-.53a7.43,7.43,0,0,1-1.15.09,7.91,7.91,0,1,1,0-15.81,7.24,7.24,0,0,1,1.15.09v-.53a5.54,5.54,0,0,1,5.53-5.53H78.49V69.37a7,7,0,1,1,9.13-6.63,7.08,7.08,0,0,1-4.82,6.63v1.28H92.94a5.54,5.54,0,0,1,5.54,5.53v.54a6.38,6.38,0,0,1,1.15-.1,7.91,7.91,0,1,1,0,15.81,7.06,7.06,0,0,1-1.15-.09v.53A5.54,5.54,0,0,1,92.94,98.4Zm-5-3.3a1.15,1.15,0,0,0,0,2.3h5a4.54,4.54,0,0,0,4.54-4.53V91.06l.63.18a5.6,5.6,0,0,0,1.52.19,6.91,6.91,0,1,0,0-13.81,6,6,0,0,0-1.53.2l-.62.16v-1.8a4.54,4.54,0,0,0-4.54-4.53H81.8v-3l.37-.1a6.05,6.05,0,0,0,4.45-5.77,6,6,0,1,0-7.51,5.77l.38.1v3H68.27a4.53,4.53,0,0,0-4.53,4.53V78l-.64-.18a5.52,5.52,0,0,0-1.51-.2,6.91,6.91,0,1,0,0,13.81,6,6,0,0,0,1.53-.2l.62-.15v1.79a4.53,4.53,0,0,0,4.53,4.53H81.15a1.15,1.15,0,0,0,0-2.3H68.27a2.19,2.19,0,0,1-2.15-2.16V76.26a2.19,2.19,0,0,1,2.15-2.16H92.94a2.19,2.19,0,0,1,2.16,2.16V92.94a2.19,2.19,0,0,1-2.16,2.16Zm11.65-6a5.18,5.18,0,0,1-1.83-.39l-.32-.13v-8l.25-.14a3.8,3.8,0,0,1,1.9-.43,4.53,4.53,0,0,1,0,9.06Zm-1.15-1.22a3.3,3.3,0,0,0,1.15.22,3.53,3.53,0,0,0,0-7.06,3.08,3.08,0,0,0-1.15.18ZM61.59,89.05a4.53,4.53,0,1,1,0-9,5.23,5.23,0,0,1,1.83.39l.32.12v8l-.25.14A3.83,3.83,0,0,1,61.59,89.05Zm0-8a3.53,3.53,0,1,0,0,7,3.17,3.17,0,0,0,1.15-.17V81.21A3.59,3.59,0,0,0,61.59,81ZM80.43,66.33a3.38,3.38,0,0,1-2.32-1A3.67,3.67,0,0,1,77,62.74a3.56,3.56,0,0,1,3.59-3.6,3.6,3.6,0,0,1,0,7.19Zm.14-6.19A2.57,2.57,0,0,0,78,62.74a2.65,2.65,0,0,0,.82,1.9,2.37,2.37,0,0,0,1.75.69,2.6,2.6,0,1,0,0-5.19Z"/><path class="cls-1" d="M70.72,84.17a2.59,2.59,0,1,0,2.59-2.59A2.58,2.58,0,0,0,70.72,84.17Z"/><path class="cls-1" d="M73.31,87.26a3.09,3.09,0,1,1,3.09-3.09A3.09,3.09,0,0,1,73.31,87.26Zm0-5.18a2.09,2.09,0,1,0,2.09,2.09A2.07,2.07,0,0,0,73.31,82.08Z"/><path class="cls-1" d="M90.5,84.17a2.59,2.59,0,1,0-2.59,2.59A2.68,2.68,0,0,0,90.5,84.17Z"/><path class="cls-1" d="M87.93,87.26A3.09,3.09,0,1,1,91,84.17a3.17,3.17,0,0,1-3.07,3.09Zm0-5.18a2.09,2.09,0,0,0,0,4.18A2.18,2.18,0,0,0,90,84.17,2.07,2.07,0,0,0,87.91,82.08Z"/><path class="cls-1" d="M136.6,70.5,124,68.71a43.33,43.33,0,0,0-4.39-10.5L127.25,48a1.75,1.75,0,0,0-.15-2.23L115.24,33.9a1.74,1.74,0,0,0-2.23-.15l-10.22,7.63A46.29,46.29,0,0,0,92.29,37L90.5,24.4A1.7,1.7,0,0,0,88.84,23H72.09a1.64,1.64,0,0,0-1.66,1.43L68.63,37a43.26,43.26,0,0,0-10.5,4.39L47.92,33.75a1.75,1.75,0,0,0-2.23.15L33.83,45.76A1.74,1.74,0,0,0,33.68,48L41.3,58.21a45.81,45.81,0,0,0-4.38,10.5L24.33,70.5a1.71,1.71,0,0,0-1.44,1.66V88.91a1.65,1.65,0,0,0,1.44,1.66l12.59,1.8a43.23,43.23,0,0,0,4.38,10.5l-7.62,10.21a1.75,1.75,0,0,0,.15,2.23l11.86,11.86a1.74,1.74,0,0,0,2.23.15l3.38-2.52a1.7,1.7,0,1,0-2-2.73l-2.23,1.65-9.78-9.78L44.76,104a1.63,1.63,0,0,0,.07-1.87A40.43,40.43,0,0,1,40,90.5a1.8,1.8,0,0,0-1.37-1.3L26.35,87.48V73.6l12.29-1.73A1.6,1.6,0,0,0,40,70.58a42.56,42.56,0,0,1,4.82-11.66,1.75,1.75,0,0,0-.07-1.87l-7.41-9.92,9.78-9.78,9.92,7.48a1.63,1.63,0,0,0,1.87.07,40.49,40.49,0,0,1,11.66-4.82,1.79,1.79,0,0,0,1.29-1.36l1.73-12.3H87.48l1.72,12.3a1.6,1.6,0,0,0,1.3,1.36,42.49,42.49,0,0,1,11.65,4.82,1.75,1.75,0,0,0,1.87-.07l9.92-7.48,9.78,9.78-7.48,9.92a1.63,1.63,0,0,0-.07,1.87A40.49,40.49,0,0,1,121,70.58a1.79,1.79,0,0,0,1.37,1.29l12.29,1.73V87.48L122.36,89.2A1.6,1.6,0,0,0,121,90.5a42.49,42.49,0,0,1-4.82,11.65,1.75,1.75,0,0,0,.07,1.87l7.48,9.92-9.78,9.78L104,116.24a1.63,1.63,0,0,0-1.87-.07A40.43,40.43,0,0,1,90.5,121a1.8,1.8,0,0,0-1.3,1.37l-1.72,12.29H73.6l-1.73-12.29A1.6,1.6,0,0,0,70.58,121a42.56,42.56,0,0,1-11.66-4.82,1.75,1.75,0,0,0-1.87.07L54.75,118a1.78,1.78,0,0,0-.36,2.37,1.7,1.7,0,0,0,2.38.36l1.44-1.08A46.29,46.29,0,0,0,68.71,124L70.5,136.6A1.7,1.7,0,0,0,72.16,138H88.91a1.64,1.64,0,0,0,1.66-1.43L92.37,124a43.26,43.26,0,0,0,10.5-4.39l10.21,7.63a1.75,1.75,0,0,0,2.23-.15l11.86-11.86a1.74,1.74,0,0,0,.15-2.23l-7.62-10.22a45.81,45.81,0,0,0,4.38-10.5l12.59-1.79a1.71,1.71,0,0,0,1.44-1.66V72.09A1.64,1.64,0,0,0,136.6,70.5Z"/><path class="cls-1" d="M88.91,138.53H72.16A2.19,2.19,0,0,1,70,136.68L68.26,124.4a47.05,47.05,0,0,1-10-4.18l-1.17.88a2.19,2.19,0,0,1-3.1-.49,2.26,2.26,0,0,1,.47-3l2.32-1.74a2.25,2.25,0,0,1,2.43-.09,41.43,41.43,0,0,0,11.5,4.75,2.09,2.09,0,0,1,1.68,1.8L74,134.15H87l1.67-11.86a2.3,2.3,0,0,1,1.68-1.79,39.71,39.71,0,0,0,11.49-4.75,2.12,2.12,0,0,1,2.44.09l9.58,7.22,9.16-9.16-7.22-9.58a2.27,2.27,0,0,1-.09-2.44,41.31,41.31,0,0,0,4.75-11.5,2.1,2.1,0,0,1,1.8-1.68L134.15,87V74l-11.86-1.66a2.33,2.33,0,0,1-1.79-1.69,39.71,39.71,0,0,0-4.75-11.49,2.12,2.12,0,0,1,.09-2.44l7.22-9.57L113.9,38l-9.58,7.22a2.27,2.27,0,0,1-2.44.09,41.74,41.74,0,0,0-11.5-4.75,2.06,2.06,0,0,1-1.67-1.8L87,26.92H74L72.36,38.78a2.29,2.29,0,0,1-1.68,1.79,39.71,39.71,0,0,0-11.49,4.75,2.1,2.1,0,0,1-2.43-.09L47.18,38,38,47.18l7.15,9.58a2.25,2.25,0,0,1,.09,2.43,41.43,41.43,0,0,0-4.75,11.5,2.09,2.09,0,0,1-1.8,1.68L26.85,74V87l11.86,1.67a2.3,2.3,0,0,1,1.79,1.68,39.71,39.71,0,0,0,4.75,11.49,2.12,2.12,0,0,1-.09,2.44l-7.22,9.58,9.17,9.16L49,121.67a2.19,2.19,0,0,1,2.62,3.52l-3.39,2.53a2.25,2.25,0,0,1-2.88-.19L33.47,115.66a2.25,2.25,0,0,1-.18-2.89l7.42-9.94a43.69,43.69,0,0,1-4.19-10L24.26,91.06a2.13,2.13,0,0,1-1.87-2.15V72.16A2.19,2.19,0,0,1,24.25,70l12.27-1.75a46.88,46.88,0,0,1,4.19-10l-7.43-10a2.24,2.24,0,0,1,.19-2.88L45.34,33.54a2.25,2.25,0,0,1,2.89-.18l9.94,7.42a43.66,43.66,0,0,1,10-4.18l1.76-12.27a2.13,2.13,0,0,1,2.15-1.86H88.84A2.19,2.19,0,0,1,91,24.32L92.74,36.6a47.05,47.05,0,0,1,10,4.18l9.95-7.43a2.25,2.25,0,0,1,2.88.19l11.87,11.87a2.25,2.25,0,0,1,.18,2.89l-7.42,9.94a43.74,43.74,0,0,1,4.18,10L136.65,70a2.13,2.13,0,0,1,2,2.07V88.84A2.19,2.19,0,0,1,136.75,91l-12.27,1.75a47.1,47.1,0,0,1-4.19,10l7.43,9.95a2.24,2.24,0,0,1-.19,2.88l-11.87,11.87a2.25,2.25,0,0,1-2.89.18l-9.94-7.42a44.13,44.13,0,0,1-10,4.19l-1.76,12.26A2.13,2.13,0,0,1,88.91,138.53ZM58.17,119l.28.16a46.07,46.07,0,0,0,10.39,4.34l.31.09L71,136.53a1.18,1.18,0,0,0,1.16,1H88.91a1.15,1.15,0,0,0,1.16-1l1.85-12.93.31-.09a42.65,42.65,0,0,0,10.38-4.34l.29-.17,10.48,7.83a1.25,1.25,0,0,0,1.59-.12l11.85-11.85a1.24,1.24,0,0,0,.09-1.59l-7.81-10.46.16-.28a46.07,46.07,0,0,0,4.34-10.39l.09-.31L136.6,90a1.18,1.18,0,0,0,1-1.16V72.09A1.15,1.15,0,0,0,136.55,71h0l-12.92-1.85-.08-.31a43,43,0,0,0-4.34-10.38l-.17-.29,7.83-10.48a1.25,1.25,0,0,0-.12-1.59L114.88,34.25a1.25,1.25,0,0,0-1.59-.09L102.83,42l-.28-.16a45.88,45.88,0,0,0-10.39-4.34l-.31-.08L90,24.47a1.18,1.18,0,0,0-1.16-1H72.09a1.15,1.15,0,0,0-1.16,1L69.08,37.39l-.31.08a42.82,42.82,0,0,0-10.38,4.34L58.1,42,47.62,34.15a1.26,1.26,0,0,0-1.6.12L34.18,46.12a1.24,1.24,0,0,0-.09,1.59L41.9,58.17l-.16.28A45.88,45.88,0,0,0,37.4,68.84l-.09.31L24.4,71a1.19,1.19,0,0,0-1,1.16V88.91a1.16,1.16,0,0,0,1,1.16l12.93,1.85.09.31a42.43,42.43,0,0,0,4.34,10.38l.16.29-7.82,10.48a1.26,1.26,0,0,0,.12,1.6l11.85,11.84a1.22,1.22,0,0,0,1.58.09L51,124.4a1.2,1.2,0,1,0-1.44-1.91L47,124.38,36.62,114l7.74-10.27a1.13,1.13,0,0,0,0-1.31,41,41,0,0,1-4.88-11.79,1.28,1.28,0,0,0-1-.93L25.85,87.91V73.16l12.72-1.79a1.11,1.11,0,0,0,1-.89A42.56,42.56,0,0,1,44.4,58.67a1.29,1.29,0,0,0,0-1.33L36.69,47.08,47.08,36.69l10.28,7.74a1.13,1.13,0,0,0,1.3,0,40.66,40.66,0,0,1,11.8-4.88,1.31,1.31,0,0,0,.92-1l1.78-12.69H87.91L89.7,38.65a1.1,1.1,0,0,0,.89.94,42.86,42.86,0,0,1,11.81,4.88,1.26,1.26,0,0,0,1.33,0L114,36.69l10.39,10.39-7.74,10.28a1.13,1.13,0,0,0,0,1.3,40.39,40.39,0,0,1,4.88,11.8,1.31,1.31,0,0,0,1,.92l12.68,1.78V87.91L122.43,89.7a1.11,1.11,0,0,0-1,.9,42.93,42.93,0,0,1-4.88,11.8,1.29,1.29,0,0,0,.05,1.33L124.38,114,114,124.38l-10.27-7.74a1.13,1.13,0,0,0-1.31,0,40.83,40.83,0,0,1-11.79,4.88,1.28,1.28,0,0,0-.93,1l-1.78,12.69H73.16l-1.79-12.72a1.11,1.11,0,0,0-.89-1,43,43,0,0,1-11.81-4.88,1.27,1.27,0,0,0-1.32.05l-2.3,1.72a1.27,1.27,0,0,0-.23,1.7.94.94,0,0,0,.71.44,1.49,1.49,0,0,0,1-.23Z"/><path class="cls-1" d="M60.36,53.89a33.48,33.48,0,1,0,20.21-6.76,34.09,34.09,0,0,0-14.09,3.09,1.67,1.67,0,1,0,1.43,3,29.57,29.57,0,0,1,12.66-2.8A30.06,30.06,0,1,1,50.51,80.5a29.62,29.62,0,0,1,11.94-24,1.69,1.69,0,1,0-2.09-2.66Z"/><path class="cls-1" d="M80.57,114.51a34,34,0,0,1-20.51-61,2.19,2.19,0,1,1,2.7,3.44A29.08,29.08,0,0,0,51,80.5,29.56,29.56,0,1,0,80.57,50.94,28.85,28.85,0,0,0,68.13,53.7a2.19,2.19,0,0,1-1.72.09,2.07,2.07,0,0,1-1.19-1.15A2.2,2.2,0,0,1,65.13,51a2.1,2.1,0,0,1,1.15-1.19,34.65,34.65,0,0,1,14.29-3.13,33.94,33.94,0,1,1,0,67.88ZM61.41,54a1.2,1.2,0,0,0-.74.25h0a33,33,0,1,0,19.9-6.66,33.61,33.61,0,0,0-13.89,3,1.09,1.09,0,0,0-.61.62,1.16,1.16,0,0,0,.06.93,1.11,1.11,0,0,0,.63.63,1.16,1.16,0,0,0,.93-.06,29.83,29.83,0,0,1,12.88-2.86A30.56,30.56,0,1,1,50,80.5,30.06,30.06,0,0,1,62.15,56.15a1.29,1.29,0,0,0,.25-1.69A1.36,1.36,0,0,0,61.41,54Z"/></svg>