<svg id="レイヤー_1" data-name="レイヤー 1" xmlns="http://www.w3.org/2000/svg" viewBox="0 0 161 161"><defs><style>.cls-1{fill:#fff;}</style></defs><title>ad</title><path class="cls-1" d="M143.1,121.48V117h0l.05-36.84a2,2,0,1,0-4,0l-.06,34.9a18.81,18.81,0,0,0-12.74,7l.1-61.31a18.9,18.9,0,0,0,11.48,7,7,7,0,0,0,1.29.14v2.46a2,2,0,1,0,4,0l0-4.3h0V61.58A14.39,14.39,0,0,0,128.92,47.2h-4.47l-6.58,0,0-3.07a5.5,5.5,0,0,0-5.51-5.54h-.52v-2.9A17,17,0,0,0,94.94,18.71l-32.53-.08a16.81,16.81,0,0,0-11.94,5,16.46,16.46,0,0,0-4.93,11.94v2.89H45A5.5,5.5,0,0,0,39.49,44l0,3.06-6.58,0H28.42A14.37,14.37,0,0,0,14,61.27v4.47h0l-.1,51h0v4.47a14.42,14.42,0,0,0,11.87,14.21,12.33,12.33,0,0,0,2.51.19h4.47l91.65.14h4.48A14.22,14.22,0,0,0,143.1,121.48ZM128.72,51.29a10.44,10.44,0,0,1,10.36,10.35l0,2.29a14.8,14.8,0,0,1-12.58-12.68Zm-16.55-8.56a1.54,1.54,0,0,1,1.49,1.5l0,3.06-5.27,0H95.48V44.25A1.3,1.3,0,0,1,96,43.19a1.57,1.57,0,0,1,1-.43Zm-20.78,1.4,0,3.07-25.87,0,0-3.06a5.23,5.23,0,0,0-1.59-3.88A5.42,5.42,0,0,0,60,38.56h-.53v-2.9A2.66,2.66,0,0,1,62.14,33l32.54.08a2.61,2.61,0,0,1,1.88.77,2.91,2.91,0,0,1,.8,1.9v2.89h-.52A5.23,5.23,0,0,0,93,40.2,5.79,5.79,0,0,0,91.39,44.13ZM53.18,26.64a12.69,12.69,0,0,1,9.08-3.74L94.8,23a12.84,12.84,0,0,1,12.8,12.89v2.9l-6.14,0v-2.9a6.66,6.66,0,0,0-2-4.73,6.57,6.57,0,0,0-4.74-2L62.23,29a6.73,6.73,0,0,0-6.74,6.78l0,2.9-6.14,0V35.79A12.72,12.72,0,0,1,53.18,26.64Zm-8.37,16,12.73,0h2.54a1.3,1.3,0,0,1,1.06.46,1.67,1.67,0,0,1,.43,1l0,3.06H48.66l-5.27,0,0-3.06A1.35,1.35,0,0,1,44.81,42.61ZM17.86,61.51a9.78,9.78,0,0,1,3-7.27,10.35,10.35,0,0,1,7.29-3l2.29,0A14.78,14.78,0,0,1,17.8,63.78Zm10.25,70.16a10.42,10.42,0,0,1-10.35-10.35l0-2.28A14.77,14.77,0,0,1,30.3,131.71Zm6.49,0,0-13.69a2,2,0,1,0-4,0l0,4a19,19,0,0,0-12.77-7.09l0-47.11a18.84,18.84,0,0,0,12.74-7l-.09,47.44a2,2,0,0,0,1.67,2l.34.06a2,2,0,0,0,2-2l.06-57.1H46.37l0,44.13a5.44,5.44,0,0,0-2.2,3.47l-1.79,10.12a5.44,5.44,0,0,0,4,6.23l0,16.49Zm11.9-22,1.8-10.12A1.46,1.46,0,0,1,50,98.36l22.19,4a1.45,1.45,0,0,1,1.19,1.7l-1.79,10.12a1.46,1.46,0,0,1-1.71,1.19l-22.19-3.94A1.51,1.51,0,0,1,46.5,109.67Zm4,22V115.91l18.62,3.31a5.57,5.57,0,0,0,6.41-4.48l1.8-10.12a5.57,5.57,0,0,0-4.47-6.41l-22.2-3.94-.17,0,0-43.16,55.78.08,0,23.42a8,8,0,0,0-1.39-.07,13.48,13.48,0,0,0-2.39,26.77,21.52,21.52,0,0,0,2.41.25,8.53,8.53,0,0,0,1.42-.09v30.17ZM111.6,94.83a9.1,9.1,0,0,1-3.83,2.3h0a7.43,7.43,0,0,1-2.79.39,9.48,9.48,0,1,1,0-19,11.24,11.24,0,0,1,1.65.12,9.66,9.66,0,0,1,5,2.65,9.42,9.42,0,0,1,2.76,6.72h0A9.94,9.94,0,0,1,111.6,94.83Zm-1.31,37,0-31.23a13.54,13.54,0,0,0,4.16-21.9,15.27,15.27,0,0,0-4.06-2.82l0-24.47H122.3l-.09,80.52Zm25.71-3a10.08,10.08,0,0,1-7.29,3l-2.28,0a14.78,14.78,0,0,1,12.67-12.58l0,2.29A11.05,11.05,0,0,1,136,128.82Z"/><path class="cls-1" d="M81.1,63.53a5.77,5.77,0,0,0-6.71-4.7l-17.2,3a5.9,5.9,0,0,0-3.76,2.4,5.6,5.6,0,0,0-.94,4.31l1,5.79a5.9,5.9,0,0,0,2.4,3.76,6,6,0,0,0,2.29.93,5.09,5.09,0,0,0,2,0l17.2-3a5.75,5.75,0,0,0,4.7-6.71Zm-4.41,8.52-17.2,3a1.57,1.57,0,0,1-1.34-.33,1.62,1.62,0,0,1-.76-1.19l-1-5.79a1.57,1.57,0,0,1,.33-1.34,1.64,1.64,0,0,1,1.19-.76l17.2-3a1.39,1.39,0,0,1,.61,0,1.77,1.77,0,0,1,1.42,1.39l1,5.79A1.93,1.93,0,0,1,76.69,72.05Z"/><path class="cls-1" d="M54.12,107.78l11,2a2,2,0,1,0,.69-3.91l-11-1.95a1.94,1.94,0,0,0-2.3,1.61A1.9,1.9,0,0,0,54.12,107.78Z"/></svg>