<svg id="レイヤー_1" data-name="レイヤー 1" xmlns="http://www.w3.org/2000/svg" viewBox="0 0 161 161"><defs><style>.cls-1{fill:#fff;}</style></defs><title>ad</title><path class="cls-1" d="M29.65,75.81v30.12a26.53,26.53,0,0,0,2.66,11.51c7.63,15.93,30,26.63,55.61,26.63,27.09,0,47.47-9.69,55.94-26.6a2.11,2.11,0,0,0-.23-2.26,2.13,2.13,0,0,0-2.14-.75c-10,2.32-14.46-3.18-15.9-5.65a21.47,21.47,0,0,1-2.71-10.72V80.26l13.78-13.77A11.66,11.66,0,0,0,128.4,46.6a11.53,11.53,0,0,0-7.68,3,46.38,46.38,0,0,0-87.88-2.12,11.63,11.63,0,0,0-12.5,19Zm46-54.64h.66a42.3,42.3,0,0,1,41,31.75L104.43,65.75a2.12,2.12,0,0,0,3,3L123.16,53a7.6,7.6,0,0,1,10.49,0,7.43,7.43,0,0,1,0,10.49L119.28,77.88l-1.36,1.35a2.13,2.13,0,0,0,.72,3.47V98.09a25.72,25.72,0,0,0,3.28,12.85,16.94,16.94,0,0,0,16,8.28c-8.74,13.16-26.68,20.61-50,20.61-23.66,0-44.95-10-51.78-24.21a22.44,22.44,0,0,1-2.26-9.69V64.55A43.26,43.26,0,0,1,36,51.06,42.51,42.51,0,0,1,75.63,21.17ZM23.34,53a7.57,7.57,0,0,1,8.17-1.54,47,47,0,0,0-1.86,13.08v5.26l-6.31-6.32a7.41,7.41,0,0,1,0-10.48Z"/><path class="cls-1" d="M50.84,76.26c4.83,0,8.47-5.92,8.47-13.77s-3.64-13.77-8.47-13.77-8.48,5.92-8.48,13.77S46,76.26,50.84,76.26Zm0-23.31c1.72,0,4.23,3.72,4.23,9.54S52.56,72,50.84,72s-4.24-3.71-4.24-9.53S49.11,53,50.84,53Z"/><path class="cls-1" d="M56.63,111.38a2,2,0,0,0,.28.78c2.15,5.81,6.05,6.48,10.88,6.48s8.72-.67,10.88-6.48a2.15,2.15,0,0,0,.28-.78A47.73,47.73,0,0,0,80.5,97.45c0-11.88-5.58-21.19-12.71-21.19S55.07,85.57,55.07,97.45A47.4,47.4,0,0,0,56.63,111.38Zm11.16,3c-2.89,0-5.22,0-6.7-3.07a8.47,8.47,0,0,1,13.4,0C73,114.41,70.67,114.41,67.79,114.41Zm0-33.91c4,0,8.47,7,8.47,17a65.32,65.32,0,0,1-.52,9.17,12.66,12.66,0,0,0-15.91,0,65.32,65.32,0,0,1-.52-9.17C59.31,87.46,63.78,80.5,67.79,80.5Z"/><path class="cls-1" d="M84.74,76.26c4.83,0,8.48-5.92,8.48-13.77s-3.65-13.77-8.48-13.77-8.48,5.92-8.48,13.77S79.91,76.26,84.74,76.26Zm0-23.31C86.47,53,89,56.67,89,62.49S86.47,72,84.74,72s-4.24-3.71-4.24-9.53S83,53,84.74,53Z"/></svg>