<svg id="レイヤー_1" data-name="レイヤー 1" xmlns="http://www.w3.org/2000/svg" viewBox="0 0 161 161"><defs><style>.cls-1{fill:#fff;}</style></defs><title>ad</title><path class="cls-1" d="M141.68,62.47c-1.8-19.73-15.76-34-33.23-34A33,33,0,0,0,80.16,44.74C74.22,34.57,64,28.43,52.55,28.43c-17.47,0-31.43,14.31-33.22,34-.15.88-.73,5.46,1,12.94a55.49,55.49,0,0,0,17,28.36l42.76,38.81,43.5-38.81a55.49,55.49,0,0,0,17-28.36C142.4,67.92,141.81,63.34,141.68,62.47ZM136,74.32a50.74,50.74,0,0,1-15.56,25.93l-40.31,36-39.62-36A50.72,50.72,0,0,1,25,74.31c-1.67-7.07-1-11.07-1-11.1L24,63C25.55,45.7,37.55,33.15,52.55,33.15,63.61,33.15,73.35,40,78,50.9l2.18,5.15,2.17-5.15a28.52,28.52,0,0,1,26.14-17.74c15,0,27,12.54,28.55,30C137,63.24,137.7,67.24,136,74.32Z"/><path class="cls-1" d="M90.31,93.07a13.89,13.89,0,0,1-19.62,0,2.54,2.54,0,0,0-3.59,3.59,19,19,0,0,0,26.8,0,2.54,2.54,0,0,0-3.59-3.59Z"/><path class="cls-1" d="M59,63.33a12,12,0,1,0,12,12A12,12,0,0,0,59,63.33Zm-2.68,16.4a3.4,3.4,0,1,1-1.74-4.21A3.23,3.23,0,0,1,56.35,79.73Zm6.14,4.7A2.72,2.72,0,1,1,61.2,80.8,2.73,2.73,0,0,1,62.49,84.43Zm-3-7c-3.28-1.57-4.79-5.24-3.38-8.2s5.22-4.08,8.5-2.52,4.8,5.24,3.39,8.2S62.77,79,59.48,77.39Z"/><path class="cls-1" d="M103.56,64.32A10.86,10.86,0,1,0,114,75.78,11,11,0,0,0,103.56,64.32ZM100.26,79a3,3,0,0,1-4.07.94A2.89,2.89,0,0,1,94.81,76a3,3,0,0,1,4.07-.94A2.89,2.89,0,0,1,100.26,79Zm5.39,4.56a2.53,2.53,0,0,1-3.4,1,2.44,2.44,0,0,1-1-3.34,2.52,2.52,0,0,1,3.4-1A2.43,2.43,0,0,1,105.65,83.51Zm-2.4-6.5c-2.93-1.59-4.13-5-2.69-7.56s5-3.41,7.93-1.83,4.14,5,2.69,7.56S106.19,78.59,103.25,77Z"/></svg>