<svg id="レイヤー_1" data-name="レイヤー 1" xmlns="http://www.w3.org/2000/svg" viewBox="0 0 161 161"><defs><style>.cls-1{fill:#fff;}</style></defs><title>ad</title><path class="cls-1" d="M43.05,136.71l-8.16-6.83,3.78-4.16a22.94,22.94,0,0,1-4.38-1.15,20.13,20.13,0,0,1-8.74-6.41,19.58,19.58,0,0,1-3.45-7.61,18.06,18.06,0,0,1-.44-2.92,17.78,17.78,0,0,1,.27-5,30.26,30.26,0,0,1,1.32-4.43,52.16,52.16,0,0,1,2.58-5.42c.36-.68.71-1.35,1-2a35.65,35.65,0,0,0,2-4.46,13.86,13.86,0,0,0,.9-5.84v-.12a4.32,4.32,0,0,0-.07-.77,9.23,9.23,0,0,1-4.44-2.54l-.43-.38c-.94-.82-4.2-4.28-8.42-15.48l-.6-1.57L23.26,57l0-.56-.1-1.69,6.58-.25,8.73-2.82-.81,3c-.8,2.9-1.29,5.47-.37,12.32.08.51.24,1.18.42,1.9.71,2.9,1.68,6.86-1.16,9l-.05,0a22.61,22.61,0,0,1,.3,2.26,22.21,22.21,0,0,1-1.58,9.48,61.79,61.79,0,0,1-3.33,6.88l-.32.6a35.84,35.84,0,0,0-2,4.41,13.8,13.8,0,0,0-.9,5.76,19.52,19.52,0,0,0,.3,2,14.18,14.18,0,0,0,1.54,4,12.93,12.93,0,0,0,2.34,2.86,14.32,14.32,0,0,0,6.23,3,18.35,18.35,0,0,0,4.47.31h.09a6,6,0,0,0,1.11-.1l76.91-84.75,8.16,6.84-8.2,9.05A43.64,43.64,0,0,1,137,58.33h0c4.93,3.85,7.76,8.84,8.18,14.42.48,6.27-2.17,13-7.25,18.34-4.79,5.27-9.85,6.89-15.72,8.78-.68.21-1.37.44-2.07.67-7.18,2.42-10.52,4.72-12.34,8.49-.28.56-.53,1.08-.78,1.6a30.05,30.05,0,0,1-4.68,7.53c-7,7.72-19.22,8.57-28.4,2-4-2.87-6.68-5.63-8.26-8.37Zm-3.4-7.16,3.09,2.59L66.8,105.58l.89,2.71c.92,2.84,3.67,5.92,8.16,9.18,7.8,5.59,18.13,4.94,24-1.51a27.06,27.06,0,0,0,4.16-6.77l.79-1.62c2.56-5.31,7.56-7.9,14.26-10.17l2.11-.68c5.64-1.81,10.09-3.24,14.31-7.87,4.46-4.74,6.78-10.51,6.38-15.85-.35-4.63-2.75-8.8-6.92-12.07h0a40.56,40.56,0,0,0-14.51-7.43c-.82-.25-1.58-.49-2.29-.74l-2.34-.83,9.27-10.24L122,39.11,46.51,122.27l-.49.12a10.35,10.35,0,0,1-2.34.3h2.2ZM33.06,80.31A17.27,17.27,0,0,1,32,87.46a38.48,38.48,0,0,1-2.16,4.84c-.32.65-.69,1.34-1,2a47.87,47.87,0,0,0-2.42,5.06,28,28,0,0,0-1.17,3.89,14.57,14.57,0,0,0-.22,4,15,15,0,0,0,.37,2.5,16.38,16.38,0,0,0,2.87,6.36,16.74,16.74,0,0,0,7.29,5.31,17.93,17.93,0,0,0,1.84.58,17.35,17.35,0,0,1-6.65-3.48,16.24,16.24,0,0,1-3-3.64A17.43,17.43,0,0,1,25.75,110a22.8,22.8,0,0,1-.37-2.43,17,17,0,0,1,1.08-7.19,39.13,39.13,0,0,1,2.16-4.84L29,95a59.06,59.06,0,0,0,3.15-6.5,18.31,18.31,0,0,0,1.38-8,21.54,21.54,0,0,0-.46-2.9l-.26-1.11,1-.63L34,75.6a2.21,2.21,0,0,0,.3-.2l.2-.17c1.15-.83.5-3.48,0-5.61-.2-.79-.38-1.54-.48-2.22-.68-5-.67-8-.21-10.76l-1.53.49a28.25,28.25,0,0,0-.35,3.4l-3.3-.11a19.73,19.73,0,0,0-.13-2.57l-1.83.06C27,62,27.58,67,27.59,67l.93,7.43-4-6.35A25.12,25.12,0,0,1,21.81,61l-1.72.61C23.91,71.29,26.65,73.9,27,74.17l.49.44c.91.82,2.06,1.87,3.57,1.8l1.4,0,.32,1.6A12.68,12.68,0,0,1,33.06,80.31Zm86.73,7.19a11.57,11.57,0,0,1-11.68-10.38,10.79,10.79,0,0,1,2.66-8,11.61,11.61,0,0,1,8.14-3.94,11.46,11.46,0,0,1,12.41,10.36,10.82,10.82,0,0,1-2.67,8,11.62,11.62,0,0,1-8.13,4h0Zm-.12-19-.56,0a8.36,8.36,0,0,0-5.85,2.81,7.53,7.53,0,0,0-1.86,5.58,8.5,8.5,0,0,0,14.76,4.49A7.54,7.54,0,0,0,128,75.79,8.13,8.13,0,0,0,119.67,68.45Z"/><path class="cls-1" d="M56.67,104.38l-1-.34c-3.29-1.09-6.71-3.4-10.15-6.84-8.13-7.85-9-19.65-1.87-27.41a28.66,28.66,0,0,1,7.29-5.63c.46-.28.93-.56,1.4-.86,3.67-2.31,5.57-5.8,7-12.89.12-.62.23-1.24.35-1.84,1.13-5.92,2.11-11,7-16.38C75,23,89.37,18.8,100.57,28.67A43,43,0,0,1,111,42.27l.76,1.45ZM86,26.23c-6.44,0-12.61,3.46-16.89,8.18S64,43.54,63,49.19c-.12.61-.24,1.23-.36,1.87-1.37,6.68-3.34,11.79-8.51,15L52.63,67a25.73,25.73,0,0,0-6.54,5C40.23,78.43,41,88.24,47.81,94.84a26.16,26.16,0,0,0,7.89,5.69l52-57.32a39,39,0,0,0-9.35-12.07A18.41,18.41,0,0,0,86,26.23Z"/><path class="cls-1" d="M84.53,55.56A11.59,11.59,0,0,1,72.85,45.17a10.82,10.82,0,0,1,2.66-8,11.61,11.61,0,0,1,8.15-3.94A11.46,11.46,0,0,1,96.07,43.59a10.79,10.79,0,0,1-2.67,8,11.59,11.59,0,0,1-8.14,4C85,55.55,84.78,55.56,84.53,55.56Zm-.11-19.05a5.15,5.15,0,0,0-.56,0A8.26,8.26,0,0,0,78,39.34a7.52,7.52,0,0,0-1.86,5.57A8.49,8.49,0,0,0,90.9,49.4a7.49,7.49,0,0,0,1.87-5.55A8.14,8.14,0,0,0,84.42,36.51Z"/></svg>