<svg id="レイヤー_1" data-name="レイヤー 1" xmlns="http://www.w3.org/2000/svg" viewBox="0 0 161 161"><defs><style>.cls-1{fill:#fff;}</style></defs><title>ad</title><g id="skull-death-4"><path class="cls-1" d="M80.5,14.35c-31.62,0-57.33,21.76-57.33,48.51,0,15.28,8.64,29.83,23.15,39a2.25,2.25,0,0,1,1.1,1.9v9.86A6.65,6.65,0,0,0,54,120.19h4.41a2.2,2.2,0,0,0,2.2-2.2v-4.41h4.41V118a2.21,2.21,0,0,0,2.21,2.2h6.61a2.21,2.21,0,0,0,2.21-2.2v-6.62a2.2,2.2,0,0,1,2.2-2.2h4.42a2.2,2.2,0,0,1,2.2,2.2V118a2.21,2.21,0,0,0,2.21,2.2h6.61a2.21,2.21,0,0,0,2.21-2.2v-4.41h4.41V118a2.2,2.2,0,0,0,2.2,2.2H107a6.65,6.65,0,0,0,6.62-6.61v-9.86a2.25,2.25,0,0,1,1.1-1.9c14.51-9.13,23.15-23.68,23.15-39C137.83,36.11,112.12,14.35,80.5,14.35Zm31.84,83.72a6.68,6.68,0,0,0-3.17,5.65v9.86a2.21,2.21,0,0,1-2.21,2.2h-2.2v-2.2a4.42,4.42,0,0,0-4.41-4.41H95.94a4.4,4.4,0,0,0-4.41,4.41v2.2H89.32v-4.41a6.63,6.63,0,0,0-6.61-6.61H78.29a6.63,6.63,0,0,0-6.61,6.61v4.41H69.47v-2.2a4.4,4.4,0,0,0-4.41-4.41H60.65a4.42,4.42,0,0,0-4.41,4.41v2.2H54a2.21,2.21,0,0,1-2.21-2.2v-9.86a6.68,6.68,0,0,0-3.17-5.65C35.27,89.65,27.58,76.82,27.58,62.86c0-24.32,23.75-44.1,52.92-44.1s52.92,19.78,52.92,44.1C133.42,76.82,125.73,89.65,112.34,98.07Z"/><path class="cls-1" d="M58.45,49.63A17.64,17.64,0,1,0,76.09,67.27,17.64,17.64,0,0,0,58.45,49.63Zm0,30.87A13.23,13.23,0,1,1,71.68,67.27,13.23,13.23,0,0,1,58.45,80.5Z"/><path class="cls-1" d="M100.35,58.45a13.23,13.23,0,1,0,13.23,13.23A13.23,13.23,0,0,0,100.35,58.45Zm0,22a8.82,8.82,0,1,1,8.82-8.82A8.82,8.82,0,0,1,100.35,80.5Z"/><path class="cls-1" d="M109.17,131.22h-4.41V129a4.43,4.43,0,0,0-4.41-4.41H95.94A4.42,4.42,0,0,0,91.53,129v2.21H89.32v-4.41a4.42,4.42,0,0,0-4.41-4.41H76.09a4.42,4.42,0,0,0-4.41,4.41v4.41H69.47V129a4.42,4.42,0,0,0-4.41-4.41H60.65A4.43,4.43,0,0,0,56.24,129v2.21H51.83a4.42,4.42,0,0,0-4.41,4.41V140a4.43,4.43,0,0,0,4.41,4.41h.6a4.36,4.36,0,0,0,3.81,2.2h48.52a4.36,4.36,0,0,0,3.81-2.2h.6a4.43,4.43,0,0,0,4.41-4.41v-4.41A4.42,4.42,0,0,0,109.17,131.22Zm0,8.82H107a2.19,2.19,0,0,0-2.2,2.2H56.24A2.19,2.19,0,0,0,54,140H51.83v-4.41h6.62a2.2,2.2,0,0,0,2.2-2.21V129h4.41v4.41a2.21,2.21,0,0,0,2.21,2.21h6.61a2.21,2.21,0,0,0,2.21-2.21v-6.61h8.82v6.61a2.21,2.21,0,0,0,2.21,2.21h6.61a2.21,2.21,0,0,0,2.21-2.21V129h4.41v4.41a2.2,2.2,0,0,0,2.2,2.21h6.62Z"/></g></svg>