<svg id="レイヤー_1" data-name="レイヤー 1" xmlns="http://www.w3.org/2000/svg" viewBox="0 0 161 161"><defs><style>.cls-1{fill:#fff;}</style></defs><title>ad</title><path class="cls-1" d="M68.68,140.41a1.94,1.94,0,0,0-2.7-.59,26.13,26.13,0,0,1-18.84,3.54A36.74,36.74,0,0,1,27.7,133.17c-6.73-6.73-10.6-15.56-10.6-24.23A23.7,23.7,0,0,1,24,91.61a19.8,19.8,0,0,1,7.23-4.8,1.95,1.95,0,1,0-1.43-3.62,25.86,25.86,0,0,0-8.58,5.72,28.19,28.19,0,0,0-8,20.12c0,9.76,4.29,19.6,11.78,27.09,7.74,7.66,17.67,11.78,27.09,11.78a29.33,29.33,0,0,0,16.07-4.63A2.21,2.21,0,0,0,68.68,140.41Z"/><path class="cls-1" d="M70,109.36,51.51,90.93a2,2,0,0,0-2.77,0l-7,6.9a2,2,0,0,0-.59,1.43,1.85,1.85,0,0,0,.59,1.43l18.51,18.43a2,2,0,0,0,2.86,0l7-6.9a2,2,0,0,0,.59-1.43A2.57,2.57,0,0,0,70,109.36Zm-8.33,5.56L46,99.26l4.12-4.12,15.74,15.65Z"/><path class="cls-1" d="M61.19,133.34a6.16,6.16,0,0,0-2.53-4.2,6.83,6.83,0,0,0-4.79-1.27,6.22,6.22,0,0,0-4.21,2.53,6.43,6.43,0,0,0,1.26,9,6.3,6.3,0,0,0,3.87,1.26,3.66,3.66,0,0,0,.93-.08,6.18,6.18,0,0,0,4.21-2.53A6,6,0,0,0,61.19,133.34Zm-4.38,2.36a3.19,3.19,0,0,1-1.68,1,2.43,2.43,0,0,1-1.85-.51,2.52,2.52,0,0,1,1.51-4.54,2.78,2.78,0,0,1,1.52.5,3.22,3.22,0,0,1,1,1.69A2.44,2.44,0,0,1,56.81,135.7Z"/><path class="cls-1" d="M143.48,30.1,146.85,26a3.26,3.26,0,0,0,.08-4.46l-7.57-7.58a3.26,3.26,0,0,0-4.46.09l-4.13,3.36-3-3A2,2,0,0,0,125,17.14l2.78,2.78-3.12,2.52-2.52-2.52a2,2,0,1,0-2.78,2.77L121.6,25l-1,.84a1.4,1.4,0,0,0-.25.33l-1.43,1.77-2.36-2.35a2,2,0,1,0-2.77,2.77L116.47,31l-1.85,2.44a1.9,1.9,0,0,0,0,2.44L86.85,63.5c-6.31-4.79-12.28-6.81-17.75-6-8.84,1.26-14.31,9.26-17.59,14-.84,1.18-1.6,2.27-2,2.77a22.81,22.81,0,0,1-11.36,6.4,2,2,0,0,0-1.43,2.44,1.91,1.91,0,0,0,1.94,1.43,1.1,1.1,0,0,0,.5-.08A27.21,27.21,0,0,0,52.35,77a22.72,22.72,0,0,0,2.53-3.37C58,69.14,62.62,62.33,69.77,61.32c4.38-.59,9.17,1,14.39,4.88l-14,14-4-4a2,2,0,0,0-2.77,0l-7,6.9a2.06,2.06,0,0,0-.59,1.43,1.85,1.85,0,0,0,.59,1.43L74.9,104.48a2,2,0,0,0,2.86,0l7-6.9a2,2,0,0,0,.59-1.43,1.85,1.85,0,0,0-.59-1.43l-4-3.87,4-3.95a3.78,3.78,0,0,0,1,1.26c3,2.94,8.66,2.35,14.13,1.85,2.28-.25,6.15-.59,7.07-.09,0,.34-.33,1.52-2.52,4.46-4.21,5.56-11.19,9.26-15.82,11.7a22.11,22.11,0,0,0-4.38,2.69c-5.72,5.72-7,10.86-8.07,15.4-.85,3.54-1.69,6.82-4.46,10.35A2,2,0,0,0,72,137.3a2,2,0,0,0,2.78-.34c3.28-4.21,4.21-8.08,5.13-11.78,1.1-4.46,2.11-8.67,7.07-13.55a31.62,31.62,0,0,1,3.45-1.93c4.63-2.44,12.37-6.48,17.08-12.79,2.19-3,4.29-6.23,2.86-8.75-1.6-2.78-5.72-2.36-10.94-1.85-4.12.42-9.25.92-10.94-.76A2.33,2.33,0,0,1,87.86,84l30.29-30.2a2,2,0,0,0,0-2.78,1.94,1.94,0,0,0-2.61-.17l-5-5.05,7.06-7,5,5-1.26,1.18a2,2,0,0,0,1.43,3.36,1.68,1.68,0,0,0,1.35-.59l1.34-1.26a1.71,1.71,0,0,0,.93.25,2,2,0,0,0,1.18-.42L130,44.57l2.69,2.69a2,2,0,0,0,2.86,0,2,2,0,0,0,0-2.77l-2.36-2.36,1.86-1.43c.08-.08.25-.17.33-.34l.84-1,2.28,2.28a2,2,0,0,0,2.86,0,2,2,0,0,0,0-2.78l-2.53-2.52,2.53-3.12L144.15,36A2,2,0,0,0,147,33.21ZM76.25,100.44,60.52,84.79l4.12-4.12h0L80.37,96.32Zm1.6-12.2-5-5L84,72.09l5.05,5Zm14-13.88-5-5,5-5,5.05,5Zm7.91-7.83-5-5.05,5-5,5,5ZM112.6,53.66l-5,5.05-5-5.05,5-5Zm19.61-16-5.81,4.55-7.57-7.58,4.54-5.8,13.8-11.45,6.39,6.4Z"/><path class="cls-1" d="M76.33,115.42a1.93,1.93,0,0,0-2.69-.67l-10,6A10.57,10.57,0,0,1,55.47,122l-2.61-.59a3.08,3.08,0,0,0-.42-.67L40.15,108.44a2,2,0,0,0-2.77,0l-4.88,4.88a2,2,0,0,0-.59,1.43,2,2,0,0,0,.59,1.43l12.28,12.28a2,2,0,0,0,2.86,0L51.09,125l3.62.84a15.65,15.65,0,0,0,3.45.42,15.4,15.4,0,0,0,7.66-2.1l10-6A2.19,2.19,0,0,0,76.33,115.42Zm-30.12,8.84-9.51-9.51,2.11-2.11,9.5,9.51Z"/></svg>