<svg id="レイヤー_1" data-name="レイヤー 1" xmlns="http://www.w3.org/2000/svg" viewBox="0 0 161 161"><defs><style>.cls-1{fill:#fff;}</style></defs><title>ad</title><path class="cls-1" d="M88,126.34a2.28,2.28,0,1,0,2.27,2.27A2.28,2.28,0,0,0,88,126.34Z"/><path class="cls-1" d="M56.08,69.24a2.28,2.28,0,0,0-2.28,2.28V115a2.28,2.28,0,1,0,4.55,0V71.52A2.28,2.28,0,0,0,56.08,69.24Z"/><path class="cls-1" d="M74.27,69.24A2.28,2.28,0,0,0,72,71.52V115a2.28,2.28,0,1,0,4.55,0V71.52A2.28,2.28,0,0,0,74.27,69.24Z"/><path class="cls-1" d="M120,60.31H108.62V53.42A11.35,11.35,0,0,0,97.76,33.75a11.39,11.39,0,0,0-9.61-5.29,11.17,11.17,0,0,0-4.29.85,20.34,20.34,0,0,0-31.09,3.61,20.51,20.51,0,0,0-21.71,20.4v27.3A6.88,6.88,0,0,0,38,87.44,6.76,6.76,0,0,0,40.38,87v41.76a11.39,11.39,0,0,0,11.38,11.38H97.25a11.38,11.38,0,0,0,11.37-11.38V122H120a11.38,11.38,0,0,0,11.38-11.37V71.68A11.38,11.38,0,0,0,120,60.31ZM104.07,126.5H97.13a2.27,2.27,0,1,0,0,4.53h6.55a6.87,6.87,0,0,1-6.43,4.57H51.76a6.84,6.84,0,0,1-6.44-4.55H78.94a2.28,2.28,0,0,0,0-4.55h-34v-62a15.78,15.78,0,0,0,11.86-8.76,1.68,1.68,0,0,1,1.21.47A13.63,13.63,0,0,0,77.38,56a.73.73,0,0,1,.53-.22c3.54,0,5.86.75,6.89,2.25.85,1.22.85,2.93.85,4.31v9.2A6.83,6.83,0,0,0,90.2,78v37a2.28,2.28,0,0,0,4.55,0V78a6.85,6.85,0,0,0,4.55-6.43v-16a12,12,0,0,0,4.77,0Zm-6-76.21a2.26,2.26,0,0,0-3.3,2V71.52a2.28,2.28,0,0,1-4.55,0v-9.2a11.57,11.57,0,0,0-1.66-6.9c-1.92-2.79-5.5-4.21-10.63-4.21a5.34,5.34,0,0,0-3.81,1.61A9.08,9.08,0,0,1,61.19,53a6.23,6.23,0,0,0-4.4-1.78,4.56,4.56,0,0,0-4.08,2.55,11.29,11.29,0,0,1-10.07,6.39,2.27,2.27,0,0,0-2.26,2.27V80.51A2.45,2.45,0,0,1,38,82.89a2.37,2.37,0,0,1-2.39-2.27V53.32a16,16,0,0,1,16-15.89,18,18,0,0,1,2.07.13A2.26,2.26,0,0,0,56,36.42a15.83,15.83,0,0,1,25.75-2.81,2.28,2.28,0,0,0,2.91.41,6.57,6.57,0,0,1,3.53-1,6.83,6.83,0,0,1,6.44,4.56A2.27,2.27,0,0,0,98,38.71a6.84,6.84,0,0,1,10.44,4.06C109.73,48.52,103.84,53.23,98.05,50.29ZM108.62,74h9.1V108.3h-9.1Zm18.2,36.63A6.83,6.83,0,0,1,120,117.4H108.62v-4.55H120a2.28,2.28,0,0,0,2.28-2.27V71.68A2.27,2.27,0,0,0,120,69.41H108.62V64.86H120a6.83,6.83,0,0,1,6.83,6.82Z"/></svg>